<mxfile host="Electron" modified="2023-08-06T14:07:24.310Z" agent="Mozilla/5.0 (Windows NT 10.0; Win64; x64) AppleWebKit/537.36 (KHTML, like Gecko) draw.io/21.6.5 Chrome/114.0.5735.243 Electron/25.3.1 Safari/537.36" etag="oFDT5BLIUoMeU2lHgrI5" version="21.6.5" type="device" pages="9">
  <diagram id="bQl8hZYF7rIdoAIgyzxm" name="furnace-temperature-control">
    <mxGraphModel dx="2229" dy="1924" grid="1" gridSize="2" guides="1" tooltips="1" connect="1" arrows="1" fold="1" page="1" pageScale="1" pageWidth="827" pageHeight="1169" math="1" shadow="0">
      <root>
        <mxCell id="0" />
        <mxCell id="1" parent="0" />
        <mxCell id="CLRCQYrKVyAb5w8cno36-4" value="" style="endArrow=none;html=1;labelBackgroundColor=none;strokeColor=default;fontFamily=IBM Plex sans;fontSize=12;fontColor=default;endSize=4;shape=connector;rounded=0;strokeWidth=2;" parent="1" edge="1">
          <mxGeometry width="50" height="50" relative="1" as="geometry">
            <mxPoint x="530" y="414" as="sourcePoint" />
            <mxPoint x="530" y="414" as="targetPoint" />
            <Array as="points">
              <mxPoint x="530" y="478" />
              <mxPoint x="466" y="478" />
              <mxPoint x="466" y="702" />
              <mxPoint x="458" y="702" />
              <mxPoint x="450" y="710" />
              <mxPoint x="434" y="710" />
              <mxPoint x="426" y="702" />
              <mxPoint x="322" y="702" />
              <mxPoint x="322" y="414" />
            </Array>
          </mxGeometry>
        </mxCell>
        <mxCell id="CLRCQYrKVyAb5w8cno36-5" value="" style="endArrow=none;html=1;rounded=0;labelBackgroundColor=none;strokeColor=default;fontFamily=IBM Plex sans;fontSize=12;fontColor=default;endSize=4;shape=connector;strokeWidth=2;" parent="1" edge="1">
          <mxGeometry width="50" height="50" relative="1" as="geometry">
            <mxPoint x="510" y="478" as="sourcePoint" />
            <mxPoint x="474" y="414" as="targetPoint" />
            <Array as="points">
              <mxPoint x="510" y="430" />
              <mxPoint x="498" y="462" />
              <mxPoint x="486" y="430" />
              <mxPoint x="474" y="462" />
            </Array>
          </mxGeometry>
        </mxCell>
        <mxCell id="CLRCQYrKVyAb5w8cno36-6" value="" style="endArrow=classic;html=1;rounded=0;labelBackgroundColor=none;strokeColor=default;fontFamily=IBM Plex sans;fontSize=12;fontColor=default;endSize=6;shape=connector;strokeWidth=2;" parent="1" edge="1">
          <mxGeometry width="50" height="50" relative="1" as="geometry">
            <mxPoint x="474" y="414" as="sourcePoint" />
            <mxPoint x="586" y="366" as="targetPoint" />
            <Array as="points">
              <mxPoint x="474" y="366" />
            </Array>
          </mxGeometry>
        </mxCell>
        <mxCell id="CLRCQYrKVyAb5w8cno36-7" value="" style="endArrow=classic;html=1;rounded=0;labelBackgroundColor=none;strokeColor=default;fontFamily=IBM Plex sans;fontSize=12;fontColor=default;endSize=6;shape=connector;strokeWidth=2;" parent="1" edge="1">
          <mxGeometry width="50" height="50" relative="1" as="geometry">
            <mxPoint x="586" y="526" as="sourcePoint" />
            <mxPoint x="510" y="478" as="targetPoint" />
            <Array as="points">
              <mxPoint x="510" y="526" />
            </Array>
          </mxGeometry>
        </mxCell>
        <mxCell id="T8MdPeKBlAta9w0n4bzA-1" value="" style="verticalLabelPosition=bottom;align=center;html=1;verticalAlign=top;pointerEvents=1;dashed=0;shape=mxgraph.pid2valves.valve;valveType=gate;actuator=diaph;rounded=0;labelBackgroundColor=none;fontFamily=IBM Plex sans;fontSize=12;fontColor=default;fillColor=none;gradientColor=none;points=[];strokeWidth=2;" parent="1" vertex="1">
          <mxGeometry x="222" y="652" width="26" height="26" as="geometry" />
        </mxCell>
        <mxCell id="T8MdPeKBlAta9w0n4bzA-2" value="" style="endArrow=classic;html=1;rounded=0;labelBackgroundColor=none;strokeColor=default;fontFamily=IBM Plex sans;fontSize=12;fontColor=default;endSize=6;shape=connector;exitX=0.991;exitY=0.701;exitDx=0;exitDy=0;exitPerimeter=0;strokeWidth=2;" parent="1" source="T8MdPeKBlAta9w0n4bzA-1" edge="1">
          <mxGeometry width="50" height="50" relative="1" as="geometry">
            <mxPoint x="278" y="672" as="sourcePoint" />
            <mxPoint x="322" y="670" as="targetPoint" />
          </mxGeometry>
        </mxCell>
        <mxCell id="T8MdPeKBlAta9w0n4bzA-3" value="" style="endArrow=classic;html=1;rounded=0;labelBackgroundColor=none;strokeColor=default;fontFamily=IBM Plex sans;fontSize=12;fontColor=default;endSize=6;shape=connector;entryX=0.013;entryY=0.699;entryDx=0;entryDy=0;entryPerimeter=0;strokeWidth=2;" parent="1" target="T8MdPeKBlAta9w0n4bzA-1" edge="1">
          <mxGeometry width="50" height="50" relative="1" as="geometry">
            <mxPoint x="138" y="670" as="sourcePoint" />
            <mxPoint x="222" y="670" as="targetPoint" />
          </mxGeometry>
        </mxCell>
        <mxCell id="SL0A1xW5_vwnZzFH5Cf--7" value="" style="endArrow=classic;html=1;rounded=0;labelBackgroundColor=none;strokeColor=default;fontFamily=IBM Plex sans;fontSize=12;fontColor=default;endSize=6;shape=connector;exitX=0.991;exitY=0.701;exitDx=0;exitDy=0;exitPerimeter=0;strokeWidth=2;" parent="1" edge="1">
          <mxGeometry width="50" height="50" relative="1" as="geometry">
            <mxPoint x="530" y="448" as="sourcePoint" />
            <mxPoint x="586" y="448" as="targetPoint" />
          </mxGeometry>
        </mxCell>
        <mxCell id="SL0A1xW5_vwnZzFH5Cf--8" value="Fuel" style="text;html=1;strokeColor=none;fillColor=none;align=center;verticalAlign=middle;whiteSpace=wrap;rounded=0;fontSize=12;fontFamily=IBM Plex sans;fontColor=default;strokeWidth=2;" parent="1" vertex="1">
          <mxGeometry x="110" y="672" width="60" height="30" as="geometry" />
        </mxCell>
        <mxCell id="SL0A1xW5_vwnZzFH5Cf--9" value="Flue gas" style="text;html=1;strokeColor=none;fillColor=none;align=center;verticalAlign=middle;whiteSpace=wrap;rounded=0;fontSize=12;fontFamily=IBM Plex sans;fontColor=default;strokeWidth=2;" parent="1" vertex="1">
          <mxGeometry x="586" y="432" width="60" height="30" as="geometry" />
        </mxCell>
        <mxCell id="SL0A1xW5_vwnZzFH5Cf--10" value="Process fluid" style="text;html=1;strokeColor=none;fillColor=none;align=center;verticalAlign=middle;whiteSpace=wrap;rounded=0;fontSize=12;fontFamily=IBM Plex sans;fontColor=default;strokeWidth=2;" parent="1" vertex="1">
          <mxGeometry x="584" y="510" width="60" height="30" as="geometry" />
        </mxCell>
        <mxCell id="CP-j_m3v_XvNATZpzEW7-12" value="1" style="text;strokeColor=none;align=center;fillColor=none;html=1;verticalAlign=middle;whiteSpace=wrap;rounded=0;fontSize=12;fontFamily=IBM Plex sans;fontColor=default;" vertex="1" parent="1">
          <mxGeometry x="736" y="1110" width="60" height="30" as="geometry" />
        </mxCell>
        <mxCell id="CP-j_m3v_XvNATZpzEW7-13" value="Draw a single loop feedback, and possible cascade control configuration for the furnace.&amp;nbsp;&lt;p&gt;&lt;/p&gt;Name the disturbances which can be handled by such cascade control configuration.&lt;p&gt;&lt;/p&gt;Name the disturbances which cannot be removed by the cascade control configuration. " style="text;strokeColor=none;align=left;fillColor=none;html=1;verticalAlign=middle;whiteSpace=wrap;rounded=0;fontSize=12;fontFamily=IBM Plex sans;fontColor=default;" vertex="1" parent="1">
          <mxGeometry x="32" y="16" width="772" height="84" as="geometry" />
        </mxCell>
      </root>
    </mxGraphModel>
  </diagram>
  <diagram id="2Fkza1eFDKOKdO_3JAjb" name="ammonia-reactor">
    <mxGraphModel dx="2229" dy="1924" grid="1" gridSize="10" guides="1" tooltips="1" connect="1" arrows="1" fold="1" page="1" pageScale="1" pageWidth="827" pageHeight="1169" math="0" shadow="0">
      <root>
        <mxCell id="0" />
        <mxCell id="1" parent="0" />
        <mxCell id="F2fJbGmEkMSwkqeEvLA--1" value="" style="rounded=1;whiteSpace=wrap;html=1;arcSize=50;strokeWidth=2;" parent="1" vertex="1">
          <mxGeometry x="280" y="410" width="240" height="60" as="geometry" />
        </mxCell>
        <mxCell id="F2fJbGmEkMSwkqeEvLA--2" value="" style="endArrow=none;html=1;rounded=0;exitX=0.165;exitY=0.999;exitDx=0;exitDy=0;exitPerimeter=0;strokeWidth=2;" parent="1" edge="1">
          <mxGeometry width="50" height="50" relative="1" as="geometry">
            <mxPoint x="309.99999999999994" y="469.94000000000005" as="sourcePoint" />
            <mxPoint x="310.4" y="410" as="targetPoint" />
          </mxGeometry>
        </mxCell>
        <mxCell id="F2fJbGmEkMSwkqeEvLA--3" value="" style="endArrow=none;html=1;rounded=0;exitX=0.165;exitY=0.999;exitDx=0;exitDy=0;exitPerimeter=0;strokeWidth=2;" parent="1" edge="1">
          <mxGeometry width="50" height="50" relative="1" as="geometry">
            <mxPoint x="489.99999999999994" y="470.00000000000006" as="sourcePoint" />
            <mxPoint x="490.4" y="410.06" as="targetPoint" />
          </mxGeometry>
        </mxCell>
        <mxCell id="F2fJbGmEkMSwkqeEvLA--4" value="" style="endArrow=none;html=1;rounded=0;strokeWidth=2;" parent="1" edge="1">
          <mxGeometry width="50" height="50" relative="1" as="geometry">
            <mxPoint x="310" y="420" as="sourcePoint" />
            <mxPoint x="490" y="420" as="targetPoint" />
          </mxGeometry>
        </mxCell>
        <mxCell id="F2fJbGmEkMSwkqeEvLA--6" value="" style="endArrow=none;html=1;rounded=0;strokeWidth=2;" parent="1" edge="1">
          <mxGeometry width="50" height="50" relative="1" as="geometry">
            <mxPoint x="310" y="430" as="sourcePoint" />
            <mxPoint x="490" y="430" as="targetPoint" />
          </mxGeometry>
        </mxCell>
        <mxCell id="F2fJbGmEkMSwkqeEvLA--7" value="" style="endArrow=none;html=1;rounded=0;strokeWidth=2;" parent="1" edge="1">
          <mxGeometry width="50" height="50" relative="1" as="geometry">
            <mxPoint x="310" y="439.93" as="sourcePoint" />
            <mxPoint x="490" y="439.93" as="targetPoint" />
          </mxGeometry>
        </mxCell>
        <mxCell id="F2fJbGmEkMSwkqeEvLA--8" value="" style="endArrow=none;html=1;rounded=0;strokeWidth=2;" parent="1" edge="1">
          <mxGeometry width="50" height="50" relative="1" as="geometry">
            <mxPoint x="310" y="450" as="sourcePoint" />
            <mxPoint x="490" y="450" as="targetPoint" />
          </mxGeometry>
        </mxCell>
        <mxCell id="F2fJbGmEkMSwkqeEvLA--9" value="" style="endArrow=none;html=1;rounded=0;strokeWidth=2;" parent="1" edge="1">
          <mxGeometry width="50" height="50" relative="1" as="geometry">
            <mxPoint x="310" y="460" as="sourcePoint" />
            <mxPoint x="490" y="460" as="targetPoint" />
          </mxGeometry>
        </mxCell>
        <mxCell id="F2fJbGmEkMSwkqeEvLA--10" value="" style="endArrow=classic;html=1;rounded=0;entryX=0;entryY=0.5;entryDx=0;entryDy=0;strokeWidth=2;" parent="1" target="F2fJbGmEkMSwkqeEvLA--1" edge="1">
          <mxGeometry width="50" height="50" relative="1" as="geometry">
            <mxPoint x="200" y="440" as="sourcePoint" />
            <mxPoint x="400" y="440" as="targetPoint" />
          </mxGeometry>
        </mxCell>
        <mxCell id="F2fJbGmEkMSwkqeEvLA--11" value="" style="endArrow=classic;html=1;rounded=0;entryX=0;entryY=0.5;entryDx=0;entryDy=0;strokeWidth=2;" parent="1" edge="1">
          <mxGeometry width="50" height="50" relative="1" as="geometry">
            <mxPoint x="520" y="439.83" as="sourcePoint" />
            <mxPoint x="600" y="439.83" as="targetPoint" />
          </mxGeometry>
        </mxCell>
        <mxCell id="F2fJbGmEkMSwkqeEvLA--12" value="" style="endArrow=classic;html=1;rounded=0;strokeWidth=2;" parent="1" edge="1">
          <mxGeometry width="50" height="50" relative="1" as="geometry">
            <mxPoint x="480" y="339.83" as="sourcePoint" />
            <mxPoint x="480" y="410" as="targetPoint" />
          </mxGeometry>
        </mxCell>
        <mxCell id="F2fJbGmEkMSwkqeEvLA--13" value="" style="endArrow=classic;html=1;rounded=0;strokeWidth=2;" parent="1" edge="1">
          <mxGeometry width="50" height="50" relative="1" as="geometry">
            <mxPoint x="320" y="470" as="sourcePoint" />
            <mxPoint x="320" y="540.17" as="targetPoint" />
          </mxGeometry>
        </mxCell>
        <mxCell id="F2fJbGmEkMSwkqeEvLA--14" value="Process&lt;br&gt;fluid" style="text;strokeColor=none;align=left;fillColor=none;html=1;verticalAlign=middle;whiteSpace=wrap;rounded=0;strokeWidth=2;" parent="1" vertex="1">
          <mxGeometry x="200" y="400" width="60" height="30" as="geometry" />
        </mxCell>
        <mxCell id="F2fJbGmEkMSwkqeEvLA--15" value="Coolant" style="text;strokeColor=none;align=center;fillColor=none;html=1;verticalAlign=middle;whiteSpace=wrap;rounded=0;strokeWidth=2;" parent="1" vertex="1">
          <mxGeometry x="420" y="310" width="60" height="30" as="geometry" />
        </mxCell>
        <mxCell id="F2fJbGmEkMSwkqeEvLA--16" value="T&lt;sub&gt;0&lt;/sub&gt;" style="text;strokeColor=none;align=center;fillColor=none;html=1;verticalAlign=middle;whiteSpace=wrap;rounded=0;strokeWidth=2;" parent="1" vertex="1">
          <mxGeometry x="200" y="440" width="30" height="30" as="geometry" />
        </mxCell>
        <mxCell id="F2fJbGmEkMSwkqeEvLA--17" value="T" style="text;strokeColor=none;align=center;fillColor=none;html=1;verticalAlign=middle;whiteSpace=wrap;rounded=0;strokeWidth=2;" parent="1" vertex="1">
          <mxGeometry x="570" y="440" width="30" height="30" as="geometry" />
        </mxCell>
        <mxCell id="F2fJbGmEkMSwkqeEvLA--18" value="F&lt;sub&gt;c&lt;/sub&gt;, T&lt;sub&gt;c&lt;/sub&gt;" style="text;strokeColor=none;align=center;fillColor=none;html=1;verticalAlign=middle;whiteSpace=wrap;rounded=0;strokeWidth=2;" parent="1" vertex="1">
          <mxGeometry x="330" y="510" width="40" height="30" as="geometry" />
        </mxCell>
        <mxCell id="F2fJbGmEkMSwkqeEvLA--19" value="F&lt;sub&gt;c&lt;/sub&gt;, T&lt;sub&gt;c0&lt;/sub&gt;" style="text;strokeColor=none;align=center;fillColor=none;html=1;verticalAlign=middle;whiteSpace=wrap;rounded=0;strokeWidth=2;" parent="1" vertex="1">
          <mxGeometry x="490" y="310" width="40" height="30" as="geometry" />
        </mxCell>
        <mxCell id="PBE7OUKx7UzoTZLlhygY-1" value="Consider that you have been appointed by the plant manager to design a cascade control strategy for the Haber process that produces ammonia (NH&lt;span style=&quot;font-size:8pt;&quot; class=&quot;fontstyle0&quot;&gt;3&lt;/span&gt;&lt;span class=&quot;fontstyle0&quot;&gt;) for fertilizer production. The Haber process is conducted in a multi-tubular catalytic reactor where reaction occurs in the tubes while cooling medium flowing in the shell outside the tubes. The reactor has a length of 10 meters and shell dimeter of 2.5 meters.&lt;p&gt;&lt;/p&gt;Propose a cascade control strategy for this reactor. Give comments why you propose such a cascade control strategy&lt;/span&gt; &lt;br&gt;" style="text;strokeColor=none;align=left;fillColor=none;html=1;verticalAlign=middle;whiteSpace=wrap;rounded=0;fontSize=12;fontFamily=IBM Plex sans;fontColor=default;" vertex="1" parent="1">
          <mxGeometry x="14" y="10" width="800" height="100" as="geometry" />
        </mxCell>
        <mxCell id="PBE7OUKx7UzoTZLlhygY-3" value="2" style="text;strokeColor=none;align=center;fillColor=none;html=1;verticalAlign=middle;whiteSpace=wrap;rounded=0;fontSize=12;fontFamily=IBM Plex sans;fontColor=default;" vertex="1" parent="1">
          <mxGeometry x="740" y="1120" width="60" height="30" as="geometry" />
        </mxCell>
      </root>
    </mxGraphModel>
  </diagram>
  <diagram id="kc-Z9yx0-DcCertyT3mK" name="feedback-level-control">
    <mxGraphModel dx="2229" dy="1924" grid="1" gridSize="2" guides="1" tooltips="1" connect="1" arrows="1" fold="1" page="1" pageScale="1" pageWidth="827" pageHeight="1169" math="1" shadow="0">
      <root>
        <mxCell id="0" />
        <mxCell id="1" parent="0" />
        <mxCell id="q67JHDeiQA9ufwhso4Hd-2" value="" style="endArrow=none;html=1;rounded=0;labelBackgroundColor=none;strokeColor=default;fontFamily=IBM Plex sans;fontSize=12;fontColor=default;endSize=6;shape=connector;strokeWidth=2;" parent="1" edge="1">
          <mxGeometry width="50" height="50" relative="1" as="geometry">
            <mxPoint x="484" y="470" as="sourcePoint" />
            <mxPoint x="324" y="470" as="targetPoint" />
            <Array as="points">
              <mxPoint x="484" y="688" />
              <mxPoint x="324" y="688" />
            </Array>
          </mxGeometry>
        </mxCell>
        <mxCell id="q67JHDeiQA9ufwhso4Hd-12" value="" style="group;strokeWidth=2;" parent="1" vertex="1" connectable="0">
          <mxGeometry x="378" y="374" width="98" height="276.64" as="geometry" />
        </mxCell>
        <mxCell id="W1y2LjB78m_Pe4VdYFFc-4" value="" style="group;strokeWidth=2;" parent="q67JHDeiQA9ufwhso4Hd-12" vertex="1" connectable="0">
          <mxGeometry x="-8" y="38" width="66" height="226.64" as="geometry" />
        </mxCell>
        <mxCell id="q67JHDeiQA9ufwhso4Hd-3" value="" style="whiteSpace=wrap;html=1;aspect=fixed;rounded=0;fontFamily=IBM Plex sans;fontSize=12;fontColor=default;fillColor=none;gradientColor=none;strokeWidth=2;" parent="W1y2LjB78m_Pe4VdYFFc-4" vertex="1">
          <mxGeometry x="15.5" width="35" height="35" as="geometry" />
        </mxCell>
        <mxCell id="q67JHDeiQA9ufwhso4Hd-6" value="" style="shape=trapezoid;perimeter=trapezoidPerimeter;whiteSpace=wrap;html=1;fixedSize=1;rounded=0;fontFamily=IBM Plex sans;fontSize=12;fontColor=default;fillColor=none;gradientColor=none;direction=west;strokeWidth=2;" parent="W1y2LjB78m_Pe4VdYFFc-4" vertex="1">
          <mxGeometry x="18" y="35" width="30" height="9" as="geometry" />
        </mxCell>
        <mxCell id="q67JHDeiQA9ufwhso4Hd-7" value="" style="endArrow=none;html=1;rounded=0;labelBackgroundColor=none;strokeColor=default;fontFamily=IBM Plex sans;fontSize=12;fontColor=default;endSize=4;shape=connector;strokeWidth=2;" parent="W1y2LjB78m_Pe4VdYFFc-4" edge="1">
          <mxGeometry width="50" height="50" relative="1" as="geometry">
            <mxPoint x="33" y="209" as="sourcePoint" />
            <mxPoint x="33" y="43" as="targetPoint" />
          </mxGeometry>
        </mxCell>
        <mxCell id="q67JHDeiQA9ufwhso4Hd-8" value="" style="rounded=0;whiteSpace=wrap;html=1;fontFamily=IBM Plex sans;fontSize=12;fontColor=default;fillColor=none;gradientColor=none;strokeWidth=2;" parent="W1y2LjB78m_Pe4VdYFFc-4" vertex="1">
          <mxGeometry y="192" width="12" height="34.29" as="geometry" />
        </mxCell>
        <mxCell id="q67JHDeiQA9ufwhso4Hd-9" value="" style="rounded=0;whiteSpace=wrap;html=1;fontFamily=IBM Plex sans;fontSize=12;fontColor=default;fillColor=none;gradientColor=none;strokeWidth=2;" parent="W1y2LjB78m_Pe4VdYFFc-4" vertex="1">
          <mxGeometry x="54" y="191.64" width="12" height="35" as="geometry" />
        </mxCell>
        <mxCell id="q67JHDeiQA9ufwhso4Hd-11" style="edgeStyle=orthogonalEdgeStyle;shape=connector;rounded=0;orthogonalLoop=1;jettySize=auto;html=1;exitX=1;exitY=0.5;exitDx=0;exitDy=0;entryX=0;entryY=0.5;entryDx=0;entryDy=0;labelBackgroundColor=none;strokeColor=default;fontFamily=IBM Plex sans;fontSize=12;fontColor=default;endArrow=none;endSize=4;strokeWidth=2;endFill=0;" parent="W1y2LjB78m_Pe4VdYFFc-4" source="q67JHDeiQA9ufwhso4Hd-8" target="q67JHDeiQA9ufwhso4Hd-9" edge="1">
          <mxGeometry relative="1" as="geometry" />
        </mxCell>
        <mxCell id="vIO3qyBjUx8fPYUtH_wP-1" value="" style="endArrow=classic;startArrow=classic;html=1;rounded=0;labelBackgroundColor=none;strokeColor=default;fontFamily=IBM Plex sans;fontSize=12;fontColor=default;endSize=4;shape=connector;strokeWidth=2;" parent="q67JHDeiQA9ufwhso4Hd-12" edge="1">
          <mxGeometry width="50" height="50" relative="1" as="geometry">
            <mxPoint x="92" y="314" as="sourcePoint" />
            <mxPoint x="92" y="150" as="targetPoint" />
          </mxGeometry>
        </mxCell>
        <mxCell id="vIO3qyBjUx8fPYUtH_wP-2" value="h" style="edgeLabel;html=1;align=center;verticalAlign=middle;resizable=0;points=[];fontSize=12;fontFamily=IBM Plex sans;fontColor=default;labelBackgroundColor=none;" parent="vIO3qyBjUx8fPYUtH_wP-1" vertex="1" connectable="0">
          <mxGeometry x="0.1004" relative="1" as="geometry">
            <mxPoint x="-8" as="offset" />
          </mxGeometry>
        </mxCell>
        <mxCell id="q67JHDeiQA9ufwhso4Hd-13" value="" style="endArrow=none;html=1;rounded=0;labelBackgroundColor=none;strokeColor=default;fontFamily=IBM Plex sans;fontSize=12;fontColor=default;endSize=4;shape=connector;strokeWidth=2;" parent="1" edge="1">
          <mxGeometry width="50" height="50" relative="1" as="geometry">
            <mxPoint x="324" y="518" as="sourcePoint" />
            <mxPoint x="484" y="518" as="targetPoint" />
            <Array as="points">
              <mxPoint x="324" y="518" />
              <mxPoint x="340" y="526" />
              <mxPoint x="356" y="518" />
              <mxPoint x="372" y="526" />
              <mxPoint x="388" y="518" />
              <mxPoint x="404" y="526" />
              <mxPoint x="420" y="518" />
              <mxPoint x="436" y="526" />
              <mxPoint x="452" y="518" />
              <mxPoint x="468" y="526" />
              <mxPoint x="484" y="518" />
            </Array>
          </mxGeometry>
        </mxCell>
        <mxCell id="q67JHDeiQA9ufwhso4Hd-16" value="" style="endArrow=classic;html=1;rounded=0;labelBackgroundColor=none;strokeColor=default;fontFamily=IBM Plex sans;fontSize=12;fontColor=default;endSize=6;shape=connector;endFill=1;strokeWidth=2;" parent="1" edge="1">
          <mxGeometry width="50" height="50" relative="1" as="geometry">
            <mxPoint x="268" y="462" as="sourcePoint" />
            <mxPoint x="356" y="502" as="targetPoint" />
            <Array as="points">
              <mxPoint x="356" y="462" />
            </Array>
          </mxGeometry>
        </mxCell>
        <mxCell id="W1y2LjB78m_Pe4VdYFFc-1" value="" style="verticalLabelPosition=bottom;align=center;html=1;verticalAlign=top;pointerEvents=1;dashed=0;shape=mxgraph.pid2valves.valve;valveType=gate;actuator=diaph;rounded=0;labelBackgroundColor=none;fontFamily=IBM Plex sans;fontSize=12;fontColor=default;fillColor=none;gradientColor=none;points=[];strokeWidth=2;" parent="1" vertex="1">
          <mxGeometry x="494" y="444" width="26" height="26" as="geometry" />
        </mxCell>
        <mxCell id="W1y2LjB78m_Pe4VdYFFc-2" value="" style="endArrow=classic;html=1;rounded=0;labelBackgroundColor=none;strokeColor=default;fontFamily=IBM Plex sans;fontSize=12;fontColor=default;endSize=6;shape=connector;entryX=1.009;entryY=0.692;entryDx=0;entryDy=0;entryPerimeter=0;strokeWidth=2;" parent="1" target="W1y2LjB78m_Pe4VdYFFc-1" edge="1">
          <mxGeometry width="50" height="50" relative="1" as="geometry">
            <mxPoint x="620" y="462" as="sourcePoint" />
            <mxPoint x="546" y="482" as="targetPoint" />
          </mxGeometry>
        </mxCell>
        <mxCell id="W1y2LjB78m_Pe4VdYFFc-3" value="" style="endArrow=classic;html=1;rounded=0;labelBackgroundColor=none;strokeColor=default;fontFamily=IBM Plex sans;fontSize=12;fontColor=default;endSize=6;shape=connector;exitX=0.002;exitY=0.692;exitDx=0;exitDy=0;exitPerimeter=0;strokeWidth=2;" parent="1" source="W1y2LjB78m_Pe4VdYFFc-1" edge="1">
          <mxGeometry width="50" height="50" relative="1" as="geometry">
            <mxPoint x="540" y="472" as="sourcePoint" />
            <mxPoint x="452" y="502" as="targetPoint" />
            <Array as="points">
              <mxPoint x="452" y="462" />
            </Array>
          </mxGeometry>
        </mxCell>
        <mxCell id="8t8rZg7fADJo9cEjRCPq-1" value="w&lt;sub&gt;1&lt;/sub&gt;" style="text;html=1;strokeColor=none;fillColor=none;align=center;verticalAlign=middle;whiteSpace=wrap;rounded=0;fontSize=12;fontFamily=IBM Plex sans;fontColor=default;strokeWidth=2;" parent="1" vertex="1">
          <mxGeometry x="122" y="436" width="60" height="30" as="geometry" />
        </mxCell>
        <mxCell id="8t8rZg7fADJo9cEjRCPq-2" value="w&lt;sub&gt;2&lt;/sub&gt;" style="text;html=1;strokeColor=none;fillColor=none;align=center;verticalAlign=middle;whiteSpace=wrap;rounded=0;fontSize=12;fontFamily=IBM Plex sans;fontColor=default;strokeWidth=2;" parent="1" vertex="1">
          <mxGeometry x="572" y="436" width="60" height="30" as="geometry" />
        </mxCell>
        <mxCell id="8t8rZg7fADJo9cEjRCPq-4" style="edgeStyle=orthogonalEdgeStyle;shape=connector;rounded=0;orthogonalLoop=1;jettySize=auto;html=1;labelBackgroundColor=none;strokeColor=default;fontFamily=IBM Plex sans;fontSize=12;fontColor=default;endArrow=none;endSize=4;startArrow=classic;startFill=1;endFill=0;strokeWidth=2;" parent="1" source="8t8rZg7fADJo9cEjRCPq-3" edge="1">
          <mxGeometry relative="1" as="geometry">
            <mxPoint x="402" y="688" as="targetPoint" />
          </mxGeometry>
        </mxCell>
        <mxCell id="8t8rZg7fADJo9cEjRCPq-5" style="edgeStyle=orthogonalEdgeStyle;shape=connector;rounded=0;orthogonalLoop=1;jettySize=auto;html=1;labelBackgroundColor=none;strokeColor=default;fontFamily=IBM Plex sans;fontSize=12;fontColor=default;endArrow=classic;endSize=6;strokeWidth=2;" parent="1" source="8t8rZg7fADJo9cEjRCPq-3" edge="1">
          <mxGeometry relative="1" as="geometry">
            <mxPoint x="618" y="712" as="targetPoint" />
          </mxGeometry>
        </mxCell>
        <mxCell id="8t8rZg7fADJo9cEjRCPq-3" value="" style="verticalLabelPosition=bottom;align=center;html=1;verticalAlign=top;pointerEvents=1;dashed=0;shape=mxgraph.pid2valves.valve;valveType=gate;labelBackgroundColor=none;fontFamily=IBM Plex sans;fontSize=12;fontColor=default;fillColor=none;gradientColor=none;strokeWidth=2;" parent="1" vertex="1">
          <mxGeometry x="550" y="704" width="26" height="16" as="geometry" />
        </mxCell>
        <mxCell id="8t8rZg7fADJo9cEjRCPq-6" value="w" style="text;html=1;strokeColor=none;fillColor=none;align=center;verticalAlign=middle;whiteSpace=wrap;rounded=0;fontSize=12;fontFamily=IBM Plex sans;fontColor=default;strokeWidth=2;" parent="1" vertex="1">
          <mxGeometry x="574" y="682" width="60" height="30" as="geometry" />
        </mxCell>
        <mxCell id="BszSAKbTWInTShk9utVm-7" value="" style="verticalLabelPosition=bottom;align=center;html=1;verticalAlign=top;pointerEvents=1;dashed=0;shape=mxgraph.pid2valves.valve;valveType=gate;actuator=diaph;rounded=0;labelBackgroundColor=none;fontFamily=IBM Plex sans;fontSize=12;fontColor=default;fillColor=none;gradientColor=none;points=[];strokeWidth=2;" parent="1" vertex="1">
          <mxGeometry x="242" y="444" width="26" height="26" as="geometry" />
        </mxCell>
        <mxCell id="BszSAKbTWInTShk9utVm-8" value="" style="endArrow=classic;html=1;rounded=0;labelBackgroundColor=none;strokeColor=default;fontFamily=IBM Plex sans;fontSize=12;fontColor=default;endSize=6;shape=connector;strokeWidth=2;entryX=0.046;entryY=0.723;entryDx=0;entryDy=0;entryPerimeter=0;" parent="1" target="BszSAKbTWInTShk9utVm-7" edge="1">
          <mxGeometry width="50" height="50" relative="1" as="geometry">
            <mxPoint x="146" y="462" as="sourcePoint" />
            <mxPoint x="210" y="462" as="targetPoint" />
          </mxGeometry>
        </mxCell>
        <mxCell id="WPd7ixmE45sygkIhx9Hx-1" value="&lt;span class=&quot;fontstyle0&quot;&gt;Draw a feedback system to control liquid level by using w1 as manipulated variable.&lt;br&gt;&lt;br&gt;Is it possible to improve the performance of the feedback system in the presence of disturbances in w&lt;/span&gt;&lt;span class=&quot;fontstyle0&quot; style=&quot;font-size:6pt;&quot;&gt;1&lt;/span&gt;&lt;span class=&quot;fontstyle0&quot;&gt;?&lt;/span&gt; &lt;br&gt;" style="text;whiteSpace=wrap;html=1;fontSize=12;fontFamily=IBM Plex sans;fontColor=default;" vertex="1" parent="1">
          <mxGeometry x="30" y="24" width="750" height="72" as="geometry" />
        </mxCell>
        <mxCell id="Gu_NR6BB4B3iB7qkdvQQ-1" value="3" style="text;strokeColor=none;align=center;fillColor=none;html=1;verticalAlign=middle;whiteSpace=wrap;rounded=0;fontSize=12;fontFamily=IBM Plex sans;fontColor=default;" vertex="1" parent="1">
          <mxGeometry x="726" y="1100" width="60" height="30" as="geometry" />
        </mxCell>
      </root>
    </mxGraphModel>
  </diagram>
  <diagram id="M0tSJeHoxlN1fXX3Sh-L" name="exothermic-reactor">
    <mxGraphModel dx="3056" dy="1924" grid="1" gridSize="2" guides="1" tooltips="1" connect="1" arrows="1" fold="1" page="1" pageScale="1" pageWidth="827" pageHeight="1169" math="0" shadow="0">
      <root>
        <mxCell id="0" />
        <mxCell id="1" parent="0" />
        <mxCell id="pjkkp21Q2_Y4nsvy3B1y-2" value="" style="verticalLabelPosition=bottom;outlineConnect=0;align=center;dashed=0;html=1;verticalAlign=top;shape=mxgraph.pid2misc.column;columnType=common;labelBackgroundColor=none;fontFamily=IBM Plex sans;fontSize=12;fontColor=default;fillColor=none;gradientColor=none;strokeWidth=2;" parent="1" vertex="1">
          <mxGeometry x="-409" y="504" width="138" height="178" as="geometry" />
        </mxCell>
        <mxCell id="pjkkp21Q2_Y4nsvy3B1y-3" value="" style="shape=mxgraph.pid.agitators.agitator_(propeller);html=1;pointerEvents=1;align=center;verticalLabelPosition=bottom;verticalAlign=top;dashed=0;labelBackgroundColor=none;fontFamily=IBM Plex sans;fontSize=12;fontColor=default;fillColor=none;gradientColor=none;strokeWidth=2;" parent="1" vertex="1">
          <mxGeometry x="-387" y="442" width="92" height="214" as="geometry" />
        </mxCell>
        <mxCell id="pjkkp21Q2_Y4nsvy3B1y-4" value="" style="rounded=0;whiteSpace=wrap;html=1;labelBackgroundColor=none;fontFamily=IBM Plex sans;fontSize=12;fontColor=default;fillColor=none;gradientColor=none;strokeWidth=2;" parent="1" vertex="1">
          <mxGeometry x="-356" y="406" width="30" height="36" as="geometry" />
        </mxCell>
        <mxCell id="pjkkp21Q2_Y4nsvy3B1y-5" value="" style="endArrow=none;html=1;rounded=0;labelBackgroundColor=none;strokeColor=default;fontFamily=IBM Plex sans;fontSize=12;fontColor=default;endSize=4;shape=connector;strokeWidth=2;exitX=1.005;exitY=0.177;exitDx=0;exitDy=0;exitPerimeter=0;" parent="1" source="pjkkp21Q2_Y4nsvy3B1y-32" target="pjkkp21Q2_Y4nsvy3B1y-2" edge="1">
          <mxGeometry width="50" height="50" relative="1" as="geometry">
            <mxPoint x="-409" y="568" as="sourcePoint" />
            <mxPoint x="-271" y="568" as="targetPoint" />
            <Array as="points">
              <mxPoint x="-388" y="556" />
              <mxPoint x="-368" y="566" />
              <mxPoint x="-348" y="556" />
              <mxPoint x="-328" y="566" />
              <mxPoint x="-308" y="556" />
              <mxPoint x="-288" y="566" />
            </Array>
          </mxGeometry>
        </mxCell>
        <mxCell id="pjkkp21Q2_Y4nsvy3B1y-7" value="" style="endArrow=classic;html=1;rounded=0;labelBackgroundColor=none;strokeColor=default;fontFamily=IBM Plex sans;fontSize=12;fontColor=default;endSize=6;shape=connector;strokeWidth=2;exitX=0.97;exitY=0.46;exitDx=0;exitDy=0;exitPerimeter=0;" parent="1" source="pjkkp21Q2_Y4nsvy3B1y-10" edge="1">
          <mxGeometry width="50" height="50" relative="1" as="geometry">
            <mxPoint x="-462.0000000000001" y="527" as="sourcePoint" />
            <mxPoint x="-409" y="526" as="targetPoint" />
          </mxGeometry>
        </mxCell>
        <mxCell id="pjkkp21Q2_Y4nsvy3B1y-29" style="edgeStyle=orthogonalEdgeStyle;rounded=0;orthogonalLoop=1;jettySize=auto;html=1;exitX=0;exitY=0.5;exitDx=0;exitDy=0;startArrow=classic;startFill=1;endArrow=none;endFill=0;strokeWidth=2;" parent="1" source="pjkkp21Q2_Y4nsvy3B1y-9" target="pjkkp21Q2_Y4nsvy3B1y-2" edge="1">
          <mxGeometry relative="1" as="geometry" />
        </mxCell>
        <mxCell id="pjkkp21Q2_Y4nsvy3B1y-9" value="outlet" style="text;html=1;strokeColor=none;fillColor=none;align=center;verticalAlign=middle;whiteSpace=wrap;rounded=0;fontSize=12;fontFamily=IBM Plex sans;fontColor=default;strokeWidth=2;" parent="1" vertex="1">
          <mxGeometry x="-288" y="706" width="37" height="20" as="geometry" />
        </mxCell>
        <mxCell id="pjkkp21Q2_Y4nsvy3B1y-10" value="Inlet" style="text;html=1;strokeColor=none;fillColor=none;align=center;verticalAlign=middle;whiteSpace=wrap;rounded=0;fontSize=12;fontFamily=IBM Plex sans;fontColor=default;strokeWidth=2;" parent="1" vertex="1">
          <mxGeometry x="-498" y="516" width="37" height="22" as="geometry" />
        </mxCell>
        <mxCell id="pjkkp21Q2_Y4nsvy3B1y-50" style="edgeStyle=orthogonalEdgeStyle;rounded=0;orthogonalLoop=1;jettySize=auto;html=1;exitX=0.025;exitY=0.686;exitDx=0;exitDy=0;exitPerimeter=0;strokeWidth=2;" parent="1" source="pjkkp21Q2_Y4nsvy3B1y-26" edge="1">
          <mxGeometry relative="1" as="geometry">
            <mxPoint x="-232" y="668" as="targetPoint" />
            <mxPoint x="-175.86199999999997" y="695.7660000000001" as="sourcePoint" />
            <Array as="points">
              <mxPoint x="-176" y="668" />
            </Array>
          </mxGeometry>
        </mxCell>
        <mxCell id="pjkkp21Q2_Y4nsvy3B1y-26" value="" style="verticalLabelPosition=bottom;align=center;html=1;verticalAlign=top;pointerEvents=1;dashed=0;shape=mxgraph.pid2valves.valve;valveType=gate;actuator=diaph;rounded=0;labelBackgroundColor=none;fontFamily=IBM Plex sans;fontSize=12;fontColor=default;fillColor=none;gradientColor=none;points=[];strokeWidth=2;rotation=90;" parent="1" vertex="1">
          <mxGeometry x="-184" y="703" width="26" height="26" as="geometry" />
        </mxCell>
        <mxCell id="pjkkp21Q2_Y4nsvy3B1y-41" style="edgeStyle=orthogonalEdgeStyle;rounded=0;orthogonalLoop=1;jettySize=auto;html=1;exitX=1.001;exitY=0.699;exitDx=0;exitDy=0;exitPerimeter=0;strokeWidth=2;endArrow=none;endFill=0;startArrow=classic;startFill=1;" parent="1" source="pjkkp21Q2_Y4nsvy3B1y-27" edge="1">
          <mxGeometry relative="1" as="geometry">
            <mxPoint x="-514" y="708" as="targetPoint" />
            <Array as="points">
              <mxPoint x="-556" y="708" />
              <mxPoint x="-512" y="708" />
            </Array>
          </mxGeometry>
        </mxCell>
        <mxCell id="pjkkp21Q2_Y4nsvy3B1y-27" value="" style="verticalLabelPosition=bottom;align=center;html=1;verticalAlign=top;pointerEvents=1;dashed=0;shape=mxgraph.pid2valves.valve;valveType=gate;actuator=diaph;rounded=0;labelBackgroundColor=none;fontFamily=IBM Plex sans;fontSize=12;fontColor=default;fillColor=none;gradientColor=none;points=[];strokeWidth=2;" parent="1" vertex="1">
          <mxGeometry x="-632" y="690" width="26" height="26" as="geometry" />
        </mxCell>
        <mxCell id="pjkkp21Q2_Y4nsvy3B1y-31" value="" style="rounded=0;whiteSpace=wrap;html=1;strokeWidth=2;" parent="1" vertex="1">
          <mxGeometry x="-271" y="546" width="13" height="120" as="geometry" />
        </mxCell>
        <mxCell id="pjkkp21Q2_Y4nsvy3B1y-38" style="edgeStyle=orthogonalEdgeStyle;rounded=0;orthogonalLoop=1;jettySize=auto;html=1;exitX=-0.065;exitY=0.082;exitDx=0;exitDy=0;exitPerimeter=0;entryX=0.52;entryY=-0.004;entryDx=0;entryDy=0;entryPerimeter=0;strokeWidth=2;" parent="1" source="pjkkp21Q2_Y4nsvy3B1y-32" target="pjkkp21Q2_Y4nsvy3B1y-34" edge="1">
          <mxGeometry relative="1" as="geometry">
            <mxPoint x="-478" y="556" as="targetPoint" />
          </mxGeometry>
        </mxCell>
        <mxCell id="pjkkp21Q2_Y4nsvy3B1y-32" value="" style="rounded=0;whiteSpace=wrap;html=1;strokeWidth=2;" parent="1" vertex="1">
          <mxGeometry x="-422" y="546" width="13" height="120" as="geometry" />
        </mxCell>
        <mxCell id="pjkkp21Q2_Y4nsvy3B1y-39" style="edgeStyle=orthogonalEdgeStyle;rounded=0;orthogonalLoop=1;jettySize=auto;html=1;entryX=0.01;entryY=0.5;entryDx=0;entryDy=0;entryPerimeter=0;strokeWidth=2;" parent="1" source="pjkkp21Q2_Y4nsvy3B1y-34" target="pjkkp21Q2_Y4nsvy3B1y-37" edge="1">
          <mxGeometry relative="1" as="geometry" />
        </mxCell>
        <mxCell id="pjkkp21Q2_Y4nsvy3B1y-34" value="" style="verticalLabelPosition=bottom;outlineConnect=0;align=center;dashed=0;html=1;verticalAlign=top;shape=mxgraph.pid2misc.column;columnType=common;strokeWidth=2;fillColor=none;" parent="1" vertex="1">
          <mxGeometry x="-538" y="576" width="50" height="80" as="geometry" />
        </mxCell>
        <mxCell id="pjkkp21Q2_Y4nsvy3B1y-35" value="" style="endArrow=none;html=1;rounded=0;strokeWidth=2;" parent="1" edge="1">
          <mxGeometry width="50" height="50" relative="1" as="geometry">
            <mxPoint x="-538" y="606.94" as="sourcePoint" />
            <mxPoint x="-488" y="605" as="targetPoint" />
            <Array as="points">
              <mxPoint x="-532" y="605" />
              <mxPoint x="-526" y="607" />
              <mxPoint x="-520" y="605" />
              <mxPoint x="-512" y="607" />
              <mxPoint x="-504" y="605" />
              <mxPoint x="-496" y="607" />
            </Array>
          </mxGeometry>
        </mxCell>
        <mxCell id="pjkkp21Q2_Y4nsvy3B1y-40" style="edgeStyle=orthogonalEdgeStyle;rounded=0;orthogonalLoop=1;jettySize=auto;html=1;entryX=1.071;entryY=0.884;entryDx=0;entryDy=0;entryPerimeter=0;exitX=1.003;exitY=0.122;exitDx=0;exitDy=0;exitPerimeter=0;strokeWidth=2;" parent="1" source="pjkkp21Q2_Y4nsvy3B1y-37" target="pjkkp21Q2_Y4nsvy3B1y-31" edge="1">
          <mxGeometry relative="1" as="geometry">
            <Array as="points">
              <mxPoint x="-232" y="780" />
              <mxPoint x="-232" y="652" />
            </Array>
          </mxGeometry>
        </mxCell>
        <mxCell id="pjkkp21Q2_Y4nsvy3B1y-37" value="" style="shape=mxgraph.pid.pumps.centrifugal_pump_1;html=1;pointerEvents=1;align=center;verticalLabelPosition=bottom;verticalAlign=top;dashed=0;strokeWidth=2;" parent="1" vertex="1">
          <mxGeometry x="-488" y="776" width="36.57" height="35" as="geometry" />
        </mxCell>
        <mxCell id="pjkkp21Q2_Y4nsvy3B1y-42" style="edgeStyle=orthogonalEdgeStyle;rounded=0;orthogonalLoop=1;jettySize=auto;html=1;exitX=1.001;exitY=0.699;exitDx=0;exitDy=0;exitPerimeter=0;strokeWidth=2;endArrow=none;endFill=0;startArrow=classic;startFill=1;" parent="1" edge="1">
          <mxGeometry relative="1" as="geometry">
            <mxPoint x="-632" y="708" as="targetPoint" />
            <mxPoint x="-712" y="708" as="sourcePoint" />
            <Array as="points">
              <mxPoint x="-668" y="708" />
              <mxPoint x="-624" y="708" />
            </Array>
          </mxGeometry>
        </mxCell>
        <mxCell id="pjkkp21Q2_Y4nsvy3B1y-43" value="Cooling water out" style="text;html=1;strokeColor=none;fillColor=none;align=left;verticalAlign=middle;whiteSpace=wrap;rounded=0;fontSize=12;fontFamily=IBM Plex sans;fontColor=default;strokeWidth=2;" parent="1" vertex="1">
          <mxGeometry x="-718" y="720" width="56" height="22" as="geometry" />
        </mxCell>
        <mxCell id="pjkkp21Q2_Y4nsvy3B1y-44" value="water surge tank" style="text;html=1;strokeColor=none;fillColor=none;align=center;verticalAlign=middle;whiteSpace=wrap;rounded=0;fontSize=12;fontFamily=IBM Plex sans;fontColor=default;strokeWidth=2;" parent="1" vertex="1">
          <mxGeometry x="-640" y="530" width="62" height="22" as="geometry" />
        </mxCell>
        <mxCell id="pjkkp21Q2_Y4nsvy3B1y-46" value="" style="endArrow=classic;html=1;rounded=0;exitX=1;exitY=1;exitDx=0;exitDy=0;" parent="1" source="pjkkp21Q2_Y4nsvy3B1y-44" target="pjkkp21Q2_Y4nsvy3B1y-34" edge="1">
          <mxGeometry width="50" height="50" relative="1" as="geometry">
            <mxPoint x="-634" y="790" as="sourcePoint" />
            <mxPoint x="-584" y="740" as="targetPoint" />
          </mxGeometry>
        </mxCell>
        <mxCell id="pjkkp21Q2_Y4nsvy3B1y-47" value="Reactor" style="text;html=1;strokeColor=none;fillColor=none;align=center;verticalAlign=middle;whiteSpace=wrap;rounded=0;fontSize=12;fontFamily=IBM Plex sans;fontColor=default;strokeWidth=2;" parent="1" vertex="1">
          <mxGeometry x="-374" y="652" width="62" height="22" as="geometry" />
        </mxCell>
        <mxCell id="pjkkp21Q2_Y4nsvy3B1y-48" value="Circulation pump" style="text;html=1;strokeColor=none;fillColor=none;align=center;verticalAlign=middle;whiteSpace=wrap;rounded=0;fontSize=12;fontFamily=IBM Plex sans;fontColor=default;strokeWidth=2;" parent="1" vertex="1">
          <mxGeometry x="-504" y="822" width="62" height="22" as="geometry" />
        </mxCell>
        <mxCell id="pjkkp21Q2_Y4nsvy3B1y-51" value="Cooling water make up" style="text;html=1;strokeColor=none;fillColor=none;align=left;verticalAlign=middle;whiteSpace=wrap;rounded=0;fontSize=12;fontFamily=IBM Plex sans;fontColor=default;strokeWidth=2;" parent="1" vertex="1">
          <mxGeometry x="-200.00000000000003" y="764" width="56" height="22" as="geometry" />
        </mxCell>
        <mxCell id="pjkkp21Q2_Y4nsvy3B1y-52" value="" style="endArrow=none;html=1;rounded=0;strokeWidth=2;entryX=1.002;entryY=0.699;entryDx=0;entryDy=0;entryPerimeter=0;" parent="1" target="pjkkp21Q2_Y4nsvy3B1y-26" edge="1">
          <mxGeometry width="50" height="50" relative="1" as="geometry">
            <mxPoint x="-176" y="750" as="sourcePoint" />
            <mxPoint x="-154" y="740" as="targetPoint" />
          </mxGeometry>
        </mxCell>
        <mxCell id="-aUdl9MqK7Q8ItFlQ0Iv-1" value="4" style="text;strokeColor=none;align=center;fillColor=none;html=1;verticalAlign=middle;whiteSpace=wrap;rounded=0;fontSize=12;fontFamily=IBM Plex sans;fontColor=default;" vertex="1" parent="1">
          <mxGeometry x="-90" y="1116" width="60" height="30" as="geometry" />
        </mxCell>
        <mxCell id="g7bpJELmDvRPelnEnEpD-1" value="&lt;div style=&quot;&quot;&gt;&lt;span style=&quot;background-color: initial;&quot;&gt;Consider a stirred chemical reactor where cooling water flows through the reactor jacket to regulate the reactor temperature.&amp;nbsp;&lt;/span&gt;&lt;/div&gt;&lt;div style=&quot;&quot;&gt;&lt;span style=&quot;background-color: initial;&quot;&gt;&lt;br&gt;&lt;/span&gt;&lt;/div&gt;&lt;div style=&quot;&quot;&gt;&lt;span style=&quot;background-color: initial;&quot;&gt;Draw a cascade control to regulate reactor temperature. What is the manipulate variable, what is the disturbance that is addressed by the cascade control?&amp;nbsp;&lt;/span&gt;&lt;/div&gt;" style="text;strokeColor=none;align=left;fillColor=none;html=1;verticalAlign=middle;whiteSpace=wrap;rounded=0;fontSize=12;fontFamily=IBM Plex sans;fontColor=default;" vertex="1" parent="1">
          <mxGeometry x="-808" y="16" width="778" height="102" as="geometry" />
        </mxCell>
      </root>
    </mxGraphModel>
  </diagram>
  <diagram id="goiMtWe9WJWyTIg5gTIA" name="distillation-column">
    <mxGraphModel dx="2229" dy="1924" grid="1" gridSize="10" guides="1" tooltips="1" connect="1" arrows="1" fold="1" page="1" pageScale="1" pageWidth="827" pageHeight="1169" math="0" shadow="0">
      <root>
        <mxCell id="0" />
        <mxCell id="1" parent="0" />
        <mxCell id="20-GNmqBlKVhvHDfHIfW-4" style="edgeStyle=orthogonalEdgeStyle;rounded=0;orthogonalLoop=1;jettySize=auto;html=1;exitX=1;exitY=0.5;exitDx=0;exitDy=0;exitPerimeter=0;strokeWidth=2;" parent="1" source="eF2_hwSykPFWz1TZ9N0n-10" target="eF2_hwSykPFWz1TZ9N0n-12" edge="1">
          <mxGeometry relative="1" as="geometry">
            <mxPoint x="390" y="485" as="targetPoint" />
          </mxGeometry>
        </mxCell>
        <mxCell id="eF2_hwSykPFWz1TZ9N0n-10" value="" style="shape=mxgraph.pid.heat_exchangers.shell_and_tube_heat_exchanger_1;html=1;pointerEvents=1;align=center;verticalLabelPosition=bottom;verticalAlign=top;dashed=0;strokeWidth=2;" parent="1" vertex="1">
          <mxGeometry x="335" y="390" width="30" height="30" as="geometry" />
        </mxCell>
        <mxCell id="20-GNmqBlKVhvHDfHIfW-9" style="edgeStyle=orthogonalEdgeStyle;rounded=0;orthogonalLoop=1;jettySize=auto;html=1;entryX=0.56;entryY=0.08;entryDx=0;entryDy=0;entryPerimeter=0;endArrow=none;endFill=0;strokeWidth=2;" parent="1" source="eF2_hwSykPFWz1TZ9N0n-12" target="20-GNmqBlKVhvHDfHIfW-7" edge="1">
          <mxGeometry relative="1" as="geometry" />
        </mxCell>
        <mxCell id="eF2_hwSykPFWz1TZ9N0n-12" value="" style="verticalLabelPosition=bottom;outlineConnect=0;align=center;dashed=0;html=1;verticalAlign=top;shape=mxgraph.pid2misc.column;columnType=common;fillColor=none;strokeWidth=2;" parent="1" vertex="1">
          <mxGeometry x="430" y="455" width="50" height="70" as="geometry" />
        </mxCell>
        <mxCell id="20-GNmqBlKVhvHDfHIfW-3" style="edgeStyle=orthogonalEdgeStyle;rounded=0;orthogonalLoop=1;jettySize=auto;html=1;exitX=1;exitY=0.5;exitDx=0;exitDy=0;entryX=0;entryY=0.5;entryDx=0;entryDy=0;entryPerimeter=0;strokeWidth=2;" parent="1" source="eF2_hwSykPFWz1TZ9N0n-13" target="eF2_hwSykPFWz1TZ9N0n-10" edge="1">
          <mxGeometry relative="1" as="geometry" />
        </mxCell>
        <mxCell id="eF2_hwSykPFWz1TZ9N0n-13" value="" style="shape=delay;whiteSpace=wrap;html=1;rotation=-90;strokeWidth=2;" parent="1" vertex="1">
          <mxGeometry x="70" y="555" width="275" height="122.5" as="geometry" />
        </mxCell>
        <mxCell id="eF2_hwSykPFWz1TZ9N0n-14" value="" style="endArrow=none;html=1;rounded=1;strokeWidth=2;" parent="1" edge="1">
          <mxGeometry width="50" height="50" relative="1" as="geometry">
            <mxPoint x="430" y="475" as="sourcePoint" />
            <mxPoint x="480" y="475" as="targetPoint" />
            <Array as="points">
              <mxPoint x="440" y="475" />
              <mxPoint x="450" y="485" />
              <mxPoint x="460" y="475" />
              <mxPoint x="470" y="485" />
            </Array>
          </mxGeometry>
        </mxCell>
        <mxCell id="20-GNmqBlKVhvHDfHIfW-6" style="edgeStyle=orthogonalEdgeStyle;rounded=0;orthogonalLoop=1;jettySize=auto;html=1;entryX=0.687;entryY=1.003;entryDx=0;entryDy=0;entryPerimeter=0;exitX=0.99;exitY=0.69;exitDx=0;exitDy=0;exitPerimeter=0;strokeWidth=2;" parent="1" source="20-GNmqBlKVhvHDfHIfW-1" target="eF2_hwSykPFWz1TZ9N0n-13" edge="1">
          <mxGeometry relative="1" as="geometry" />
        </mxCell>
        <mxCell id="20-GNmqBlKVhvHDfHIfW-1" value="" style="verticalLabelPosition=bottom;align=center;html=1;verticalAlign=top;pointerEvents=1;dashed=0;shape=mxgraph.pid2valves.valve;valveType=gate;actuator=diaph;rounded=0;labelBackgroundColor=none;fontFamily=IBM Plex sans;fontSize=12;fontColor=default;fillColor=none;gradientColor=none;points=[];strokeWidth=2;rotation=-180;" parent="1" vertex="1">
          <mxGeometry x="330" y="557" width="26" height="26" as="geometry" />
        </mxCell>
        <mxCell id="20-GNmqBlKVhvHDfHIfW-12" style="edgeStyle=orthogonalEdgeStyle;rounded=0;orthogonalLoop=1;jettySize=auto;html=1;exitX=0.001;exitY=0.693;exitDx=0;exitDy=0;exitPerimeter=0;strokeWidth=2;" parent="1" source="20-GNmqBlKVhvHDfHIfW-2" edge="1">
          <mxGeometry relative="1" as="geometry">
            <mxPoint x="640" y="565" as="targetPoint" />
          </mxGeometry>
        </mxCell>
        <mxCell id="20-GNmqBlKVhvHDfHIfW-2" value="" style="verticalLabelPosition=bottom;align=center;html=1;verticalAlign=top;pointerEvents=1;dashed=0;shape=mxgraph.pid2valves.valve;valveType=gate;actuator=diaph;rounded=0;labelBackgroundColor=none;fontFamily=IBM Plex sans;fontSize=12;fontColor=default;fillColor=none;gradientColor=none;points=[];strokeWidth=2;rotation=-180;" parent="1" vertex="1">
          <mxGeometry x="567" y="557" width="26" height="26" as="geometry" />
        </mxCell>
        <mxCell id="20-GNmqBlKVhvHDfHIfW-10" style="edgeStyle=orthogonalEdgeStyle;rounded=0;orthogonalLoop=1;jettySize=auto;html=1;entryX=1.026;entryY=0.701;entryDx=0;entryDy=0;entryPerimeter=0;strokeWidth=2;" parent="1" source="20-GNmqBlKVhvHDfHIfW-7" target="20-GNmqBlKVhvHDfHIfW-2" edge="1">
          <mxGeometry relative="1" as="geometry" />
        </mxCell>
        <mxCell id="20-GNmqBlKVhvHDfHIfW-11" style="edgeStyle=orthogonalEdgeStyle;rounded=0;orthogonalLoop=1;jettySize=auto;html=1;entryX=-0.013;entryY=0.684;entryDx=0;entryDy=0;entryPerimeter=0;strokeWidth=2;" parent="1" source="20-GNmqBlKVhvHDfHIfW-7" target="20-GNmqBlKVhvHDfHIfW-1" edge="1">
          <mxGeometry relative="1" as="geometry" />
        </mxCell>
        <mxCell id="20-GNmqBlKVhvHDfHIfW-7" value="" style="shape=waypoint;sketch=0;fillStyle=solid;size=6;pointerEvents=1;points=[];fillColor=none;resizable=0;rotatable=0;perimeter=centerPerimeter;snapToPoint=1;strokeColor=none;strokeWidth=2;" parent="1" vertex="1">
          <mxGeometry x="445" y="555" width="20" height="20" as="geometry" />
        </mxCell>
        <mxCell id="20-GNmqBlKVhvHDfHIfW-14" style="edgeStyle=orthogonalEdgeStyle;rounded=0;orthogonalLoop=1;jettySize=auto;html=1;entryX=0.687;entryY=1.003;entryDx=0;entryDy=0;entryPerimeter=0;exitX=0.99;exitY=0.69;exitDx=0;exitDy=0;exitPerimeter=0;strokeWidth=2;" parent="1" edge="1">
          <mxGeometry relative="1" as="geometry">
            <mxPoint x="330" y="725" as="sourcePoint" />
            <mxPoint x="269" y="725" as="targetPoint" />
          </mxGeometry>
        </mxCell>
        <mxCell id="20-GNmqBlKVhvHDfHIfW-15" value="Feed: T&lt;sub&gt;in&lt;/sub&gt;, F&lt;sub&gt;in&lt;/sub&gt;" style="text;strokeColor=none;align=center;fillColor=none;html=1;verticalAlign=middle;whiteSpace=wrap;rounded=0;strokeWidth=2;" parent="1" vertex="1">
          <mxGeometry x="330" y="725" width="80" height="30" as="geometry" />
        </mxCell>
        <mxCell id="20-GNmqBlKVhvHDfHIfW-16" value="Distillate : F&lt;sub&gt;d&lt;/sub&gt;" style="text;strokeColor=none;align=center;fillColor=none;html=1;verticalAlign=middle;whiteSpace=wrap;rounded=0;strokeWidth=2;" parent="1" vertex="1">
          <mxGeometry x="630" y="525" width="80" height="30" as="geometry" />
        </mxCell>
        <mxCell id="PpRH9TsLphnRkzN-TObN-1" value="Control Problems:&lt;p&gt;&lt;/p&gt;&lt;span class=&quot;fontstyle2&quot;&gt;&lt;b&gt;a) Feed and composition temperature constantly change&lt;/b&gt;&lt;p&gt;&lt;/p&gt;b) Reflux drum level constantly changes&lt;p&gt;&lt;/p&gt;c) Vapor flow in the column constantly changes&lt;p&gt;&lt;/p&gt;d) Distillate downstream pressure constantly changes&lt;p&gt;&lt;/p&gt;e) Column pressure frequently fluctuates&lt;p&gt;&lt;/p&gt;Suggest a suitable cascade control configuration to address the above mentioned issues.&lt;/span&gt; " style="text;strokeColor=none;align=left;fillColor=none;html=1;verticalAlign=middle;whiteSpace=wrap;rounded=0;fontSize=12;fontFamily=IBM Plex sans;fontColor=default;" vertex="1" parent="1">
          <mxGeometry x="29" y="10" width="770" height="210" as="geometry" />
        </mxCell>
        <mxCell id="oR7hwlbVlFVxDWajEyRB-1" value="5" style="text;strokeColor=none;align=center;fillColor=none;html=1;verticalAlign=middle;whiteSpace=wrap;rounded=0;fontSize=12;fontFamily=IBM Plex sans;fontColor=default;" vertex="1" parent="1">
          <mxGeometry x="739" y="1110" width="60" height="30" as="geometry" />
        </mxCell>
      </root>
    </mxGraphModel>
  </diagram>
  <diagram name="Copy of distillation-column" id="iass0-85YvN4C1YhETur">
    <mxGraphModel dx="2229" dy="1924" grid="1" gridSize="10" guides="1" tooltips="1" connect="1" arrows="1" fold="1" page="1" pageScale="1" pageWidth="827" pageHeight="1169" math="0" shadow="0">
      <root>
        <mxCell id="drJ2PiZsPKY_IREVKiET-0" />
        <mxCell id="drJ2PiZsPKY_IREVKiET-1" parent="drJ2PiZsPKY_IREVKiET-0" />
        <mxCell id="drJ2PiZsPKY_IREVKiET-2" style="edgeStyle=orthogonalEdgeStyle;rounded=0;orthogonalLoop=1;jettySize=auto;html=1;exitX=1;exitY=0.5;exitDx=0;exitDy=0;exitPerimeter=0;strokeWidth=2;" edge="1" parent="drJ2PiZsPKY_IREVKiET-1" source="drJ2PiZsPKY_IREVKiET-3" target="drJ2PiZsPKY_IREVKiET-5">
          <mxGeometry relative="1" as="geometry">
            <mxPoint x="390" y="485" as="targetPoint" />
          </mxGeometry>
        </mxCell>
        <mxCell id="drJ2PiZsPKY_IREVKiET-3" value="" style="shape=mxgraph.pid.heat_exchangers.shell_and_tube_heat_exchanger_1;html=1;pointerEvents=1;align=center;verticalLabelPosition=bottom;verticalAlign=top;dashed=0;strokeWidth=2;" vertex="1" parent="drJ2PiZsPKY_IREVKiET-1">
          <mxGeometry x="335" y="390" width="30" height="30" as="geometry" />
        </mxCell>
        <mxCell id="drJ2PiZsPKY_IREVKiET-4" style="edgeStyle=orthogonalEdgeStyle;rounded=0;orthogonalLoop=1;jettySize=auto;html=1;entryX=0.56;entryY=0.08;entryDx=0;entryDy=0;entryPerimeter=0;endArrow=none;endFill=0;strokeWidth=2;" edge="1" parent="drJ2PiZsPKY_IREVKiET-1" source="drJ2PiZsPKY_IREVKiET-5" target="drJ2PiZsPKY_IREVKiET-15">
          <mxGeometry relative="1" as="geometry" />
        </mxCell>
        <mxCell id="drJ2PiZsPKY_IREVKiET-5" value="" style="verticalLabelPosition=bottom;outlineConnect=0;align=center;dashed=0;html=1;verticalAlign=top;shape=mxgraph.pid2misc.column;columnType=common;fillColor=none;strokeWidth=2;" vertex="1" parent="drJ2PiZsPKY_IREVKiET-1">
          <mxGeometry x="430" y="455" width="50" height="70" as="geometry" />
        </mxCell>
        <mxCell id="drJ2PiZsPKY_IREVKiET-6" style="edgeStyle=orthogonalEdgeStyle;rounded=0;orthogonalLoop=1;jettySize=auto;html=1;exitX=1;exitY=0.5;exitDx=0;exitDy=0;entryX=0;entryY=0.5;entryDx=0;entryDy=0;entryPerimeter=0;strokeWidth=2;" edge="1" parent="drJ2PiZsPKY_IREVKiET-1" source="drJ2PiZsPKY_IREVKiET-7" target="drJ2PiZsPKY_IREVKiET-3">
          <mxGeometry relative="1" as="geometry" />
        </mxCell>
        <mxCell id="drJ2PiZsPKY_IREVKiET-7" value="" style="shape=delay;whiteSpace=wrap;html=1;rotation=-90;strokeWidth=2;" vertex="1" parent="drJ2PiZsPKY_IREVKiET-1">
          <mxGeometry x="70" y="555" width="275" height="122.5" as="geometry" />
        </mxCell>
        <mxCell id="drJ2PiZsPKY_IREVKiET-8" value="" style="endArrow=none;html=1;rounded=1;strokeWidth=2;" edge="1" parent="drJ2PiZsPKY_IREVKiET-1">
          <mxGeometry width="50" height="50" relative="1" as="geometry">
            <mxPoint x="430" y="475" as="sourcePoint" />
            <mxPoint x="480" y="475" as="targetPoint" />
            <Array as="points">
              <mxPoint x="440" y="475" />
              <mxPoint x="450" y="485" />
              <mxPoint x="460" y="475" />
              <mxPoint x="470" y="485" />
            </Array>
          </mxGeometry>
        </mxCell>
        <mxCell id="drJ2PiZsPKY_IREVKiET-9" style="edgeStyle=orthogonalEdgeStyle;rounded=0;orthogonalLoop=1;jettySize=auto;html=1;entryX=0.687;entryY=1.003;entryDx=0;entryDy=0;entryPerimeter=0;exitX=0.99;exitY=0.69;exitDx=0;exitDy=0;exitPerimeter=0;strokeWidth=2;" edge="1" parent="drJ2PiZsPKY_IREVKiET-1" source="drJ2PiZsPKY_IREVKiET-10" target="drJ2PiZsPKY_IREVKiET-7">
          <mxGeometry relative="1" as="geometry" />
        </mxCell>
        <mxCell id="drJ2PiZsPKY_IREVKiET-10" value="" style="verticalLabelPosition=bottom;align=center;html=1;verticalAlign=top;pointerEvents=1;dashed=0;shape=mxgraph.pid2valves.valve;valveType=gate;actuator=diaph;rounded=0;labelBackgroundColor=none;fontFamily=IBM Plex sans;fontSize=12;fontColor=default;fillColor=none;gradientColor=none;points=[];strokeWidth=2;rotation=-180;" vertex="1" parent="drJ2PiZsPKY_IREVKiET-1">
          <mxGeometry x="330" y="557" width="26" height="26" as="geometry" />
        </mxCell>
        <mxCell id="drJ2PiZsPKY_IREVKiET-11" style="edgeStyle=orthogonalEdgeStyle;rounded=0;orthogonalLoop=1;jettySize=auto;html=1;exitX=0.001;exitY=0.693;exitDx=0;exitDy=0;exitPerimeter=0;strokeWidth=2;" edge="1" parent="drJ2PiZsPKY_IREVKiET-1" source="drJ2PiZsPKY_IREVKiET-12">
          <mxGeometry relative="1" as="geometry">
            <mxPoint x="640" y="565" as="targetPoint" />
          </mxGeometry>
        </mxCell>
        <mxCell id="drJ2PiZsPKY_IREVKiET-12" value="" style="verticalLabelPosition=bottom;align=center;html=1;verticalAlign=top;pointerEvents=1;dashed=0;shape=mxgraph.pid2valves.valve;valveType=gate;actuator=diaph;rounded=0;labelBackgroundColor=none;fontFamily=IBM Plex sans;fontSize=12;fontColor=default;fillColor=none;gradientColor=none;points=[];strokeWidth=2;rotation=-180;" vertex="1" parent="drJ2PiZsPKY_IREVKiET-1">
          <mxGeometry x="567" y="557" width="26" height="26" as="geometry" />
        </mxCell>
        <mxCell id="drJ2PiZsPKY_IREVKiET-13" style="edgeStyle=orthogonalEdgeStyle;rounded=0;orthogonalLoop=1;jettySize=auto;html=1;entryX=1.026;entryY=0.701;entryDx=0;entryDy=0;entryPerimeter=0;strokeWidth=2;" edge="1" parent="drJ2PiZsPKY_IREVKiET-1" source="drJ2PiZsPKY_IREVKiET-15" target="drJ2PiZsPKY_IREVKiET-12">
          <mxGeometry relative="1" as="geometry" />
        </mxCell>
        <mxCell id="drJ2PiZsPKY_IREVKiET-14" style="edgeStyle=orthogonalEdgeStyle;rounded=0;orthogonalLoop=1;jettySize=auto;html=1;entryX=-0.013;entryY=0.684;entryDx=0;entryDy=0;entryPerimeter=0;strokeWidth=2;" edge="1" parent="drJ2PiZsPKY_IREVKiET-1" source="drJ2PiZsPKY_IREVKiET-15" target="drJ2PiZsPKY_IREVKiET-10">
          <mxGeometry relative="1" as="geometry" />
        </mxCell>
        <mxCell id="drJ2PiZsPKY_IREVKiET-15" value="" style="shape=waypoint;sketch=0;fillStyle=solid;size=6;pointerEvents=1;points=[];fillColor=none;resizable=0;rotatable=0;perimeter=centerPerimeter;snapToPoint=1;strokeColor=none;strokeWidth=2;" vertex="1" parent="drJ2PiZsPKY_IREVKiET-1">
          <mxGeometry x="445" y="555" width="20" height="20" as="geometry" />
        </mxCell>
        <mxCell id="drJ2PiZsPKY_IREVKiET-16" style="edgeStyle=orthogonalEdgeStyle;rounded=0;orthogonalLoop=1;jettySize=auto;html=1;entryX=0.687;entryY=1.003;entryDx=0;entryDy=0;entryPerimeter=0;exitX=0.99;exitY=0.69;exitDx=0;exitDy=0;exitPerimeter=0;strokeWidth=2;" edge="1" parent="drJ2PiZsPKY_IREVKiET-1">
          <mxGeometry relative="1" as="geometry">
            <mxPoint x="330" y="725" as="sourcePoint" />
            <mxPoint x="269" y="725" as="targetPoint" />
          </mxGeometry>
        </mxCell>
        <mxCell id="drJ2PiZsPKY_IREVKiET-17" value="Feed: T&lt;sub&gt;in&lt;/sub&gt;, F&lt;sub&gt;in&lt;/sub&gt;" style="text;strokeColor=none;align=center;fillColor=none;html=1;verticalAlign=middle;whiteSpace=wrap;rounded=0;strokeWidth=2;" vertex="1" parent="drJ2PiZsPKY_IREVKiET-1">
          <mxGeometry x="330" y="725" width="80" height="30" as="geometry" />
        </mxCell>
        <mxCell id="drJ2PiZsPKY_IREVKiET-18" value="Distillate : F&lt;sub&gt;d&lt;/sub&gt;" style="text;strokeColor=none;align=center;fillColor=none;html=1;verticalAlign=middle;whiteSpace=wrap;rounded=0;strokeWidth=2;" vertex="1" parent="drJ2PiZsPKY_IREVKiET-1">
          <mxGeometry x="630" y="525" width="80" height="30" as="geometry" />
        </mxCell>
        <mxCell id="drJ2PiZsPKY_IREVKiET-19" value="Control Problems:&lt;p&gt;&lt;/p&gt;&lt;span class=&quot;fontstyle2&quot;&gt;a) Feed and composition temperature constantly change&lt;p&gt;&lt;/p&gt;&lt;b&gt;b) Reflux drum level constantly changes&lt;/b&gt;&lt;p&gt;&lt;/p&gt;c) Vapor flow in the column constantly changes&lt;p&gt;&lt;/p&gt;d) Distillate downstream pressure constantly changes&lt;p&gt;&lt;/p&gt;e) Column pressure frequently fluctuates&lt;p&gt;&lt;/p&gt;Suggest a suitable cascade control configuration to address the above mentioned issues.&lt;/span&gt; " style="text;strokeColor=none;align=left;fillColor=none;html=1;verticalAlign=middle;whiteSpace=wrap;rounded=0;fontSize=12;fontFamily=IBM Plex sans;fontColor=default;" vertex="1" parent="drJ2PiZsPKY_IREVKiET-1">
          <mxGeometry x="29" y="10" width="770" height="210" as="geometry" />
        </mxCell>
        <mxCell id="YmZIWHvfPiZEeW8iBJud-0" value="6" style="text;strokeColor=none;align=center;fillColor=none;html=1;verticalAlign=middle;whiteSpace=wrap;rounded=0;fontSize=12;fontFamily=IBM Plex sans;fontColor=default;" vertex="1" parent="drJ2PiZsPKY_IREVKiET-1">
          <mxGeometry x="739" y="1110" width="60" height="30" as="geometry" />
        </mxCell>
      </root>
    </mxGraphModel>
  </diagram>
  <diagram name="Copy of distillation-column" id="13rwawGJY62zl90dOuIr">
    <mxGraphModel dx="2229" dy="1924" grid="1" gridSize="10" guides="1" tooltips="1" connect="1" arrows="1" fold="1" page="1" pageScale="1" pageWidth="827" pageHeight="1169" math="0" shadow="0">
      <root>
        <mxCell id="LgoiGQx8rYPNTcdAQLRf-0" />
        <mxCell id="LgoiGQx8rYPNTcdAQLRf-1" parent="LgoiGQx8rYPNTcdAQLRf-0" />
        <mxCell id="LgoiGQx8rYPNTcdAQLRf-2" style="edgeStyle=orthogonalEdgeStyle;rounded=0;orthogonalLoop=1;jettySize=auto;html=1;exitX=1;exitY=0.5;exitDx=0;exitDy=0;exitPerimeter=0;strokeWidth=2;" edge="1" parent="LgoiGQx8rYPNTcdAQLRf-1" source="LgoiGQx8rYPNTcdAQLRf-3" target="LgoiGQx8rYPNTcdAQLRf-5">
          <mxGeometry relative="1" as="geometry">
            <mxPoint x="390" y="485" as="targetPoint" />
          </mxGeometry>
        </mxCell>
        <mxCell id="LgoiGQx8rYPNTcdAQLRf-3" value="" style="shape=mxgraph.pid.heat_exchangers.shell_and_tube_heat_exchanger_1;html=1;pointerEvents=1;align=center;verticalLabelPosition=bottom;verticalAlign=top;dashed=0;strokeWidth=2;" vertex="1" parent="LgoiGQx8rYPNTcdAQLRf-1">
          <mxGeometry x="335" y="390" width="30" height="30" as="geometry" />
        </mxCell>
        <mxCell id="LgoiGQx8rYPNTcdAQLRf-4" style="edgeStyle=orthogonalEdgeStyle;rounded=0;orthogonalLoop=1;jettySize=auto;html=1;entryX=0.56;entryY=0.08;entryDx=0;entryDy=0;entryPerimeter=0;endArrow=none;endFill=0;strokeWidth=2;" edge="1" parent="LgoiGQx8rYPNTcdAQLRf-1" source="LgoiGQx8rYPNTcdAQLRf-5" target="LgoiGQx8rYPNTcdAQLRf-15">
          <mxGeometry relative="1" as="geometry" />
        </mxCell>
        <mxCell id="LgoiGQx8rYPNTcdAQLRf-5" value="" style="verticalLabelPosition=bottom;outlineConnect=0;align=center;dashed=0;html=1;verticalAlign=top;shape=mxgraph.pid2misc.column;columnType=common;fillColor=none;strokeWidth=2;" vertex="1" parent="LgoiGQx8rYPNTcdAQLRf-1">
          <mxGeometry x="430" y="455" width="50" height="70" as="geometry" />
        </mxCell>
        <mxCell id="LgoiGQx8rYPNTcdAQLRf-6" style="edgeStyle=orthogonalEdgeStyle;rounded=0;orthogonalLoop=1;jettySize=auto;html=1;exitX=1;exitY=0.5;exitDx=0;exitDy=0;entryX=0;entryY=0.5;entryDx=0;entryDy=0;entryPerimeter=0;strokeWidth=2;" edge="1" parent="LgoiGQx8rYPNTcdAQLRf-1" source="LgoiGQx8rYPNTcdAQLRf-7" target="LgoiGQx8rYPNTcdAQLRf-3">
          <mxGeometry relative="1" as="geometry" />
        </mxCell>
        <mxCell id="LgoiGQx8rYPNTcdAQLRf-7" value="" style="shape=delay;whiteSpace=wrap;html=1;rotation=-90;strokeWidth=2;" vertex="1" parent="LgoiGQx8rYPNTcdAQLRf-1">
          <mxGeometry x="70" y="555" width="275" height="122.5" as="geometry" />
        </mxCell>
        <mxCell id="LgoiGQx8rYPNTcdAQLRf-8" value="" style="endArrow=none;html=1;rounded=1;strokeWidth=2;" edge="1" parent="LgoiGQx8rYPNTcdAQLRf-1">
          <mxGeometry width="50" height="50" relative="1" as="geometry">
            <mxPoint x="430" y="475" as="sourcePoint" />
            <mxPoint x="480" y="475" as="targetPoint" />
            <Array as="points">
              <mxPoint x="440" y="475" />
              <mxPoint x="450" y="485" />
              <mxPoint x="460" y="475" />
              <mxPoint x="470" y="485" />
            </Array>
          </mxGeometry>
        </mxCell>
        <mxCell id="LgoiGQx8rYPNTcdAQLRf-9" style="edgeStyle=orthogonalEdgeStyle;rounded=0;orthogonalLoop=1;jettySize=auto;html=1;entryX=0.687;entryY=1.003;entryDx=0;entryDy=0;entryPerimeter=0;exitX=0.99;exitY=0.69;exitDx=0;exitDy=0;exitPerimeter=0;strokeWidth=2;" edge="1" parent="LgoiGQx8rYPNTcdAQLRf-1" source="LgoiGQx8rYPNTcdAQLRf-10" target="LgoiGQx8rYPNTcdAQLRf-7">
          <mxGeometry relative="1" as="geometry" />
        </mxCell>
        <mxCell id="LgoiGQx8rYPNTcdAQLRf-10" value="" style="verticalLabelPosition=bottom;align=center;html=1;verticalAlign=top;pointerEvents=1;dashed=0;shape=mxgraph.pid2valves.valve;valveType=gate;actuator=diaph;rounded=0;labelBackgroundColor=none;fontFamily=IBM Plex sans;fontSize=12;fontColor=default;fillColor=none;gradientColor=none;points=[];strokeWidth=2;rotation=-180;" vertex="1" parent="LgoiGQx8rYPNTcdAQLRf-1">
          <mxGeometry x="330" y="557" width="26" height="26" as="geometry" />
        </mxCell>
        <mxCell id="LgoiGQx8rYPNTcdAQLRf-11" style="edgeStyle=orthogonalEdgeStyle;rounded=0;orthogonalLoop=1;jettySize=auto;html=1;exitX=0.001;exitY=0.693;exitDx=0;exitDy=0;exitPerimeter=0;strokeWidth=2;" edge="1" parent="LgoiGQx8rYPNTcdAQLRf-1" source="LgoiGQx8rYPNTcdAQLRf-12">
          <mxGeometry relative="1" as="geometry">
            <mxPoint x="640" y="565" as="targetPoint" />
          </mxGeometry>
        </mxCell>
        <mxCell id="LgoiGQx8rYPNTcdAQLRf-12" value="" style="verticalLabelPosition=bottom;align=center;html=1;verticalAlign=top;pointerEvents=1;dashed=0;shape=mxgraph.pid2valves.valve;valveType=gate;actuator=diaph;rounded=0;labelBackgroundColor=none;fontFamily=IBM Plex sans;fontSize=12;fontColor=default;fillColor=none;gradientColor=none;points=[];strokeWidth=2;rotation=-180;" vertex="1" parent="LgoiGQx8rYPNTcdAQLRf-1">
          <mxGeometry x="567" y="557" width="26" height="26" as="geometry" />
        </mxCell>
        <mxCell id="LgoiGQx8rYPNTcdAQLRf-13" style="edgeStyle=orthogonalEdgeStyle;rounded=0;orthogonalLoop=1;jettySize=auto;html=1;entryX=1.026;entryY=0.701;entryDx=0;entryDy=0;entryPerimeter=0;strokeWidth=2;" edge="1" parent="LgoiGQx8rYPNTcdAQLRf-1" source="LgoiGQx8rYPNTcdAQLRf-15" target="LgoiGQx8rYPNTcdAQLRf-12">
          <mxGeometry relative="1" as="geometry" />
        </mxCell>
        <mxCell id="LgoiGQx8rYPNTcdAQLRf-14" style="edgeStyle=orthogonalEdgeStyle;rounded=0;orthogonalLoop=1;jettySize=auto;html=1;entryX=-0.013;entryY=0.684;entryDx=0;entryDy=0;entryPerimeter=0;strokeWidth=2;" edge="1" parent="LgoiGQx8rYPNTcdAQLRf-1" source="LgoiGQx8rYPNTcdAQLRf-15" target="LgoiGQx8rYPNTcdAQLRf-10">
          <mxGeometry relative="1" as="geometry" />
        </mxCell>
        <mxCell id="LgoiGQx8rYPNTcdAQLRf-15" value="" style="shape=waypoint;sketch=0;fillStyle=solid;size=6;pointerEvents=1;points=[];fillColor=none;resizable=0;rotatable=0;perimeter=centerPerimeter;snapToPoint=1;strokeColor=none;strokeWidth=2;" vertex="1" parent="LgoiGQx8rYPNTcdAQLRf-1">
          <mxGeometry x="445" y="555" width="20" height="20" as="geometry" />
        </mxCell>
        <mxCell id="LgoiGQx8rYPNTcdAQLRf-16" style="edgeStyle=orthogonalEdgeStyle;rounded=0;orthogonalLoop=1;jettySize=auto;html=1;entryX=0.687;entryY=1.003;entryDx=0;entryDy=0;entryPerimeter=0;exitX=0.99;exitY=0.69;exitDx=0;exitDy=0;exitPerimeter=0;strokeWidth=2;" edge="1" parent="LgoiGQx8rYPNTcdAQLRf-1">
          <mxGeometry relative="1" as="geometry">
            <mxPoint x="330" y="725" as="sourcePoint" />
            <mxPoint x="269" y="725" as="targetPoint" />
          </mxGeometry>
        </mxCell>
        <mxCell id="LgoiGQx8rYPNTcdAQLRf-17" value="Feed: T&lt;sub&gt;in&lt;/sub&gt;, F&lt;sub&gt;in&lt;/sub&gt;" style="text;strokeColor=none;align=center;fillColor=none;html=1;verticalAlign=middle;whiteSpace=wrap;rounded=0;strokeWidth=2;" vertex="1" parent="LgoiGQx8rYPNTcdAQLRf-1">
          <mxGeometry x="330" y="725" width="80" height="30" as="geometry" />
        </mxCell>
        <mxCell id="LgoiGQx8rYPNTcdAQLRf-18" value="Distillate : F&lt;sub&gt;d&lt;/sub&gt;" style="text;strokeColor=none;align=center;fillColor=none;html=1;verticalAlign=middle;whiteSpace=wrap;rounded=0;strokeWidth=2;" vertex="1" parent="LgoiGQx8rYPNTcdAQLRf-1">
          <mxGeometry x="630" y="525" width="80" height="30" as="geometry" />
        </mxCell>
        <mxCell id="LgoiGQx8rYPNTcdAQLRf-19" value="Control Problems:&lt;p&gt;&lt;/p&gt;&lt;span class=&quot;fontstyle2&quot;&gt;a) Feed and composition temperature constantly change&lt;p&gt;&lt;/p&gt;b) Reflux drum level constantly changes&lt;p&gt;&lt;/p&gt;&lt;b&gt;c) Vapor flow in the column constantly changes&lt;/b&gt;&lt;p&gt;&lt;/p&gt;d) Distillate downstream pressure constantly changes&lt;p&gt;&lt;/p&gt;e) Column pressure frequently fluctuates&lt;p&gt;&lt;/p&gt;Suggest a suitable cascade control configuration to address the above mentioned issues.&lt;/span&gt; " style="text;strokeColor=none;align=left;fillColor=none;html=1;verticalAlign=middle;whiteSpace=wrap;rounded=0;fontSize=12;fontFamily=IBM Plex sans;fontColor=default;" vertex="1" parent="LgoiGQx8rYPNTcdAQLRf-1">
          <mxGeometry x="29" y="10" width="770" height="210" as="geometry" />
        </mxCell>
        <mxCell id="Sl-RN4m2-HE_1WPCeYuR-0" value="7" style="text;strokeColor=none;align=center;fillColor=none;html=1;verticalAlign=middle;whiteSpace=wrap;rounded=0;fontSize=12;fontFamily=IBM Plex sans;fontColor=default;" vertex="1" parent="LgoiGQx8rYPNTcdAQLRf-1">
          <mxGeometry x="739" y="1110" width="60" height="30" as="geometry" />
        </mxCell>
      </root>
    </mxGraphModel>
  </diagram>
  <diagram name="Copy of distillation-column" id="hjzeAjfSAsvIDBa0k1Km">
    <mxGraphModel dx="2229" dy="1924" grid="1" gridSize="10" guides="1" tooltips="1" connect="1" arrows="1" fold="1" page="1" pageScale="1" pageWidth="827" pageHeight="1169" math="0" shadow="0">
      <root>
        <mxCell id="36d9lHH5Wb-6JTSnXlis-0" />
        <mxCell id="36d9lHH5Wb-6JTSnXlis-1" parent="36d9lHH5Wb-6JTSnXlis-0" />
        <mxCell id="36d9lHH5Wb-6JTSnXlis-2" style="edgeStyle=orthogonalEdgeStyle;rounded=0;orthogonalLoop=1;jettySize=auto;html=1;exitX=1;exitY=0.5;exitDx=0;exitDy=0;exitPerimeter=0;strokeWidth=2;" edge="1" parent="36d9lHH5Wb-6JTSnXlis-1" source="36d9lHH5Wb-6JTSnXlis-3" target="36d9lHH5Wb-6JTSnXlis-5">
          <mxGeometry relative="1" as="geometry">
            <mxPoint x="390" y="485" as="targetPoint" />
          </mxGeometry>
        </mxCell>
        <mxCell id="36d9lHH5Wb-6JTSnXlis-3" value="" style="shape=mxgraph.pid.heat_exchangers.shell_and_tube_heat_exchanger_1;html=1;pointerEvents=1;align=center;verticalLabelPosition=bottom;verticalAlign=top;dashed=0;strokeWidth=2;" vertex="1" parent="36d9lHH5Wb-6JTSnXlis-1">
          <mxGeometry x="335" y="390" width="30" height="30" as="geometry" />
        </mxCell>
        <mxCell id="36d9lHH5Wb-6JTSnXlis-4" style="edgeStyle=orthogonalEdgeStyle;rounded=0;orthogonalLoop=1;jettySize=auto;html=1;entryX=0.56;entryY=0.08;entryDx=0;entryDy=0;entryPerimeter=0;endArrow=none;endFill=0;strokeWidth=2;" edge="1" parent="36d9lHH5Wb-6JTSnXlis-1" source="36d9lHH5Wb-6JTSnXlis-5" target="36d9lHH5Wb-6JTSnXlis-15">
          <mxGeometry relative="1" as="geometry" />
        </mxCell>
        <mxCell id="36d9lHH5Wb-6JTSnXlis-5" value="" style="verticalLabelPosition=bottom;outlineConnect=0;align=center;dashed=0;html=1;verticalAlign=top;shape=mxgraph.pid2misc.column;columnType=common;fillColor=none;strokeWidth=2;" vertex="1" parent="36d9lHH5Wb-6JTSnXlis-1">
          <mxGeometry x="430" y="455" width="50" height="70" as="geometry" />
        </mxCell>
        <mxCell id="36d9lHH5Wb-6JTSnXlis-6" style="edgeStyle=orthogonalEdgeStyle;rounded=0;orthogonalLoop=1;jettySize=auto;html=1;exitX=1;exitY=0.5;exitDx=0;exitDy=0;entryX=0;entryY=0.5;entryDx=0;entryDy=0;entryPerimeter=0;strokeWidth=2;" edge="1" parent="36d9lHH5Wb-6JTSnXlis-1" source="36d9lHH5Wb-6JTSnXlis-7" target="36d9lHH5Wb-6JTSnXlis-3">
          <mxGeometry relative="1" as="geometry" />
        </mxCell>
        <mxCell id="36d9lHH5Wb-6JTSnXlis-7" value="" style="shape=delay;whiteSpace=wrap;html=1;rotation=-90;strokeWidth=2;" vertex="1" parent="36d9lHH5Wb-6JTSnXlis-1">
          <mxGeometry x="70" y="555" width="275" height="122.5" as="geometry" />
        </mxCell>
        <mxCell id="36d9lHH5Wb-6JTSnXlis-8" value="" style="endArrow=none;html=1;rounded=1;strokeWidth=2;" edge="1" parent="36d9lHH5Wb-6JTSnXlis-1">
          <mxGeometry width="50" height="50" relative="1" as="geometry">
            <mxPoint x="430" y="475" as="sourcePoint" />
            <mxPoint x="480" y="475" as="targetPoint" />
            <Array as="points">
              <mxPoint x="440" y="475" />
              <mxPoint x="450" y="485" />
              <mxPoint x="460" y="475" />
              <mxPoint x="470" y="485" />
            </Array>
          </mxGeometry>
        </mxCell>
        <mxCell id="36d9lHH5Wb-6JTSnXlis-9" style="edgeStyle=orthogonalEdgeStyle;rounded=0;orthogonalLoop=1;jettySize=auto;html=1;entryX=0.687;entryY=1.003;entryDx=0;entryDy=0;entryPerimeter=0;exitX=0.99;exitY=0.69;exitDx=0;exitDy=0;exitPerimeter=0;strokeWidth=2;" edge="1" parent="36d9lHH5Wb-6JTSnXlis-1" source="36d9lHH5Wb-6JTSnXlis-10" target="36d9lHH5Wb-6JTSnXlis-7">
          <mxGeometry relative="1" as="geometry" />
        </mxCell>
        <mxCell id="36d9lHH5Wb-6JTSnXlis-10" value="" style="verticalLabelPosition=bottom;align=center;html=1;verticalAlign=top;pointerEvents=1;dashed=0;shape=mxgraph.pid2valves.valve;valveType=gate;actuator=diaph;rounded=0;labelBackgroundColor=none;fontFamily=IBM Plex sans;fontSize=12;fontColor=default;fillColor=none;gradientColor=none;points=[];strokeWidth=2;rotation=-180;" vertex="1" parent="36d9lHH5Wb-6JTSnXlis-1">
          <mxGeometry x="330" y="557" width="26" height="26" as="geometry" />
        </mxCell>
        <mxCell id="36d9lHH5Wb-6JTSnXlis-11" style="edgeStyle=orthogonalEdgeStyle;rounded=0;orthogonalLoop=1;jettySize=auto;html=1;exitX=0.001;exitY=0.693;exitDx=0;exitDy=0;exitPerimeter=0;strokeWidth=2;" edge="1" parent="36d9lHH5Wb-6JTSnXlis-1" source="36d9lHH5Wb-6JTSnXlis-12">
          <mxGeometry relative="1" as="geometry">
            <mxPoint x="640" y="565" as="targetPoint" />
          </mxGeometry>
        </mxCell>
        <mxCell id="36d9lHH5Wb-6JTSnXlis-12" value="" style="verticalLabelPosition=bottom;align=center;html=1;verticalAlign=top;pointerEvents=1;dashed=0;shape=mxgraph.pid2valves.valve;valveType=gate;actuator=diaph;rounded=0;labelBackgroundColor=none;fontFamily=IBM Plex sans;fontSize=12;fontColor=default;fillColor=none;gradientColor=none;points=[];strokeWidth=2;rotation=-180;" vertex="1" parent="36d9lHH5Wb-6JTSnXlis-1">
          <mxGeometry x="567" y="557" width="26" height="26" as="geometry" />
        </mxCell>
        <mxCell id="36d9lHH5Wb-6JTSnXlis-13" style="edgeStyle=orthogonalEdgeStyle;rounded=0;orthogonalLoop=1;jettySize=auto;html=1;entryX=1.026;entryY=0.701;entryDx=0;entryDy=0;entryPerimeter=0;strokeWidth=2;" edge="1" parent="36d9lHH5Wb-6JTSnXlis-1" source="36d9lHH5Wb-6JTSnXlis-15" target="36d9lHH5Wb-6JTSnXlis-12">
          <mxGeometry relative="1" as="geometry" />
        </mxCell>
        <mxCell id="36d9lHH5Wb-6JTSnXlis-14" style="edgeStyle=orthogonalEdgeStyle;rounded=0;orthogonalLoop=1;jettySize=auto;html=1;entryX=-0.013;entryY=0.684;entryDx=0;entryDy=0;entryPerimeter=0;strokeWidth=2;" edge="1" parent="36d9lHH5Wb-6JTSnXlis-1" source="36d9lHH5Wb-6JTSnXlis-15" target="36d9lHH5Wb-6JTSnXlis-10">
          <mxGeometry relative="1" as="geometry" />
        </mxCell>
        <mxCell id="36d9lHH5Wb-6JTSnXlis-15" value="" style="shape=waypoint;sketch=0;fillStyle=solid;size=6;pointerEvents=1;points=[];fillColor=none;resizable=0;rotatable=0;perimeter=centerPerimeter;snapToPoint=1;strokeColor=none;strokeWidth=2;" vertex="1" parent="36d9lHH5Wb-6JTSnXlis-1">
          <mxGeometry x="445" y="555" width="20" height="20" as="geometry" />
        </mxCell>
        <mxCell id="36d9lHH5Wb-6JTSnXlis-16" style="edgeStyle=orthogonalEdgeStyle;rounded=0;orthogonalLoop=1;jettySize=auto;html=1;entryX=0.687;entryY=1.003;entryDx=0;entryDy=0;entryPerimeter=0;exitX=0.99;exitY=0.69;exitDx=0;exitDy=0;exitPerimeter=0;strokeWidth=2;" edge="1" parent="36d9lHH5Wb-6JTSnXlis-1">
          <mxGeometry relative="1" as="geometry">
            <mxPoint x="330" y="725" as="sourcePoint" />
            <mxPoint x="269" y="725" as="targetPoint" />
          </mxGeometry>
        </mxCell>
        <mxCell id="36d9lHH5Wb-6JTSnXlis-17" value="Feed: T&lt;sub&gt;in&lt;/sub&gt;, F&lt;sub&gt;in&lt;/sub&gt;" style="text;strokeColor=none;align=center;fillColor=none;html=1;verticalAlign=middle;whiteSpace=wrap;rounded=0;strokeWidth=2;" vertex="1" parent="36d9lHH5Wb-6JTSnXlis-1">
          <mxGeometry x="330" y="725" width="80" height="30" as="geometry" />
        </mxCell>
        <mxCell id="36d9lHH5Wb-6JTSnXlis-18" value="Distillate : F&lt;sub&gt;d&lt;/sub&gt;" style="text;strokeColor=none;align=center;fillColor=none;html=1;verticalAlign=middle;whiteSpace=wrap;rounded=0;strokeWidth=2;" vertex="1" parent="36d9lHH5Wb-6JTSnXlis-1">
          <mxGeometry x="630" y="525" width="80" height="30" as="geometry" />
        </mxCell>
        <mxCell id="36d9lHH5Wb-6JTSnXlis-19" value="Control Problems:&lt;p&gt;&lt;/p&gt;&lt;span class=&quot;fontstyle2&quot;&gt;a) Feed and composition temperature constantly change&lt;p&gt;&lt;/p&gt;b) Reflux drum level constantly changes&lt;p&gt;&lt;/p&gt;c) Vapor flow in the column constantly changes&lt;p&gt;&lt;/p&gt;&lt;b&gt;d) Distillate downstream pressure constantly changes&lt;/b&gt;&lt;p&gt;&lt;/p&gt;e) Column pressure frequently fluctuates&lt;p&gt;&lt;/p&gt;Suggest a suitable cascade control configuration to address the above mentioned issues.&lt;/span&gt; " style="text;strokeColor=none;align=left;fillColor=none;html=1;verticalAlign=middle;whiteSpace=wrap;rounded=0;fontSize=12;fontFamily=IBM Plex sans;fontColor=default;" vertex="1" parent="36d9lHH5Wb-6JTSnXlis-1">
          <mxGeometry x="29" y="10" width="770" height="210" as="geometry" />
        </mxCell>
        <mxCell id="i_9L9YZv6bc2B2X8LXOf-0" value="8" style="text;strokeColor=none;align=center;fillColor=none;html=1;verticalAlign=middle;whiteSpace=wrap;rounded=0;fontSize=12;fontFamily=IBM Plex sans;fontColor=default;" vertex="1" parent="36d9lHH5Wb-6JTSnXlis-1">
          <mxGeometry x="739" y="1110" width="60" height="30" as="geometry" />
        </mxCell>
      </root>
    </mxGraphModel>
  </diagram>
  <diagram name="Copy of distillation-column" id="g7Ew5oLgMgJQ9vNDFDWL">
    <mxGraphModel dx="2229" dy="1924" grid="1" gridSize="10" guides="1" tooltips="1" connect="1" arrows="1" fold="1" page="1" pageScale="1" pageWidth="827" pageHeight="1169" math="0" shadow="0">
      <root>
        <mxCell id="70D8c2b-a05xof2kmsQH-0" />
        <mxCell id="70D8c2b-a05xof2kmsQH-1" parent="70D8c2b-a05xof2kmsQH-0" />
        <mxCell id="70D8c2b-a05xof2kmsQH-2" style="edgeStyle=orthogonalEdgeStyle;rounded=0;orthogonalLoop=1;jettySize=auto;html=1;exitX=1;exitY=0.5;exitDx=0;exitDy=0;exitPerimeter=0;strokeWidth=2;" edge="1" parent="70D8c2b-a05xof2kmsQH-1" source="70D8c2b-a05xof2kmsQH-3" target="70D8c2b-a05xof2kmsQH-5">
          <mxGeometry relative="1" as="geometry">
            <mxPoint x="390" y="485" as="targetPoint" />
          </mxGeometry>
        </mxCell>
        <mxCell id="70D8c2b-a05xof2kmsQH-3" value="" style="shape=mxgraph.pid.heat_exchangers.shell_and_tube_heat_exchanger_1;html=1;pointerEvents=1;align=center;verticalLabelPosition=bottom;verticalAlign=top;dashed=0;strokeWidth=2;" vertex="1" parent="70D8c2b-a05xof2kmsQH-1">
          <mxGeometry x="335" y="390" width="30" height="30" as="geometry" />
        </mxCell>
        <mxCell id="70D8c2b-a05xof2kmsQH-4" style="edgeStyle=orthogonalEdgeStyle;rounded=0;orthogonalLoop=1;jettySize=auto;html=1;entryX=0.56;entryY=0.08;entryDx=0;entryDy=0;entryPerimeter=0;endArrow=none;endFill=0;strokeWidth=2;" edge="1" parent="70D8c2b-a05xof2kmsQH-1" source="70D8c2b-a05xof2kmsQH-5" target="70D8c2b-a05xof2kmsQH-15">
          <mxGeometry relative="1" as="geometry" />
        </mxCell>
        <mxCell id="70D8c2b-a05xof2kmsQH-5" value="" style="verticalLabelPosition=bottom;outlineConnect=0;align=center;dashed=0;html=1;verticalAlign=top;shape=mxgraph.pid2misc.column;columnType=common;fillColor=none;strokeWidth=2;" vertex="1" parent="70D8c2b-a05xof2kmsQH-1">
          <mxGeometry x="430" y="455" width="50" height="70" as="geometry" />
        </mxCell>
        <mxCell id="70D8c2b-a05xof2kmsQH-6" style="edgeStyle=orthogonalEdgeStyle;rounded=0;orthogonalLoop=1;jettySize=auto;html=1;exitX=1;exitY=0.5;exitDx=0;exitDy=0;entryX=0;entryY=0.5;entryDx=0;entryDy=0;entryPerimeter=0;strokeWidth=2;" edge="1" parent="70D8c2b-a05xof2kmsQH-1" source="70D8c2b-a05xof2kmsQH-7" target="70D8c2b-a05xof2kmsQH-3">
          <mxGeometry relative="1" as="geometry" />
        </mxCell>
        <mxCell id="70D8c2b-a05xof2kmsQH-7" value="" style="shape=delay;whiteSpace=wrap;html=1;rotation=-90;strokeWidth=2;" vertex="1" parent="70D8c2b-a05xof2kmsQH-1">
          <mxGeometry x="70" y="555" width="275" height="122.5" as="geometry" />
        </mxCell>
        <mxCell id="70D8c2b-a05xof2kmsQH-8" value="" style="endArrow=none;html=1;rounded=1;strokeWidth=2;" edge="1" parent="70D8c2b-a05xof2kmsQH-1">
          <mxGeometry width="50" height="50" relative="1" as="geometry">
            <mxPoint x="430" y="475" as="sourcePoint" />
            <mxPoint x="480" y="475" as="targetPoint" />
            <Array as="points">
              <mxPoint x="440" y="475" />
              <mxPoint x="450" y="485" />
              <mxPoint x="460" y="475" />
              <mxPoint x="470" y="485" />
            </Array>
          </mxGeometry>
        </mxCell>
        <mxCell id="70D8c2b-a05xof2kmsQH-9" style="edgeStyle=orthogonalEdgeStyle;rounded=0;orthogonalLoop=1;jettySize=auto;html=1;entryX=0.687;entryY=1.003;entryDx=0;entryDy=0;entryPerimeter=0;exitX=0.99;exitY=0.69;exitDx=0;exitDy=0;exitPerimeter=0;strokeWidth=2;" edge="1" parent="70D8c2b-a05xof2kmsQH-1" source="70D8c2b-a05xof2kmsQH-10" target="70D8c2b-a05xof2kmsQH-7">
          <mxGeometry relative="1" as="geometry" />
        </mxCell>
        <mxCell id="70D8c2b-a05xof2kmsQH-10" value="" style="verticalLabelPosition=bottom;align=center;html=1;verticalAlign=top;pointerEvents=1;dashed=0;shape=mxgraph.pid2valves.valve;valveType=gate;actuator=diaph;rounded=0;labelBackgroundColor=none;fontFamily=IBM Plex sans;fontSize=12;fontColor=default;fillColor=none;gradientColor=none;points=[];strokeWidth=2;rotation=-180;" vertex="1" parent="70D8c2b-a05xof2kmsQH-1">
          <mxGeometry x="330" y="557" width="26" height="26" as="geometry" />
        </mxCell>
        <mxCell id="70D8c2b-a05xof2kmsQH-11" style="edgeStyle=orthogonalEdgeStyle;rounded=0;orthogonalLoop=1;jettySize=auto;html=1;exitX=0.001;exitY=0.693;exitDx=0;exitDy=0;exitPerimeter=0;strokeWidth=2;" edge="1" parent="70D8c2b-a05xof2kmsQH-1" source="70D8c2b-a05xof2kmsQH-12">
          <mxGeometry relative="1" as="geometry">
            <mxPoint x="640" y="565" as="targetPoint" />
          </mxGeometry>
        </mxCell>
        <mxCell id="70D8c2b-a05xof2kmsQH-12" value="" style="verticalLabelPosition=bottom;align=center;html=1;verticalAlign=top;pointerEvents=1;dashed=0;shape=mxgraph.pid2valves.valve;valveType=gate;actuator=diaph;rounded=0;labelBackgroundColor=none;fontFamily=IBM Plex sans;fontSize=12;fontColor=default;fillColor=none;gradientColor=none;points=[];strokeWidth=2;rotation=-180;" vertex="1" parent="70D8c2b-a05xof2kmsQH-1">
          <mxGeometry x="567" y="557" width="26" height="26" as="geometry" />
        </mxCell>
        <mxCell id="70D8c2b-a05xof2kmsQH-13" style="edgeStyle=orthogonalEdgeStyle;rounded=0;orthogonalLoop=1;jettySize=auto;html=1;entryX=1.026;entryY=0.701;entryDx=0;entryDy=0;entryPerimeter=0;strokeWidth=2;" edge="1" parent="70D8c2b-a05xof2kmsQH-1" source="70D8c2b-a05xof2kmsQH-15" target="70D8c2b-a05xof2kmsQH-12">
          <mxGeometry relative="1" as="geometry" />
        </mxCell>
        <mxCell id="70D8c2b-a05xof2kmsQH-14" style="edgeStyle=orthogonalEdgeStyle;rounded=0;orthogonalLoop=1;jettySize=auto;html=1;entryX=-0.013;entryY=0.684;entryDx=0;entryDy=0;entryPerimeter=0;strokeWidth=2;" edge="1" parent="70D8c2b-a05xof2kmsQH-1" source="70D8c2b-a05xof2kmsQH-15" target="70D8c2b-a05xof2kmsQH-10">
          <mxGeometry relative="1" as="geometry" />
        </mxCell>
        <mxCell id="70D8c2b-a05xof2kmsQH-15" value="" style="shape=waypoint;sketch=0;fillStyle=solid;size=6;pointerEvents=1;points=[];fillColor=none;resizable=0;rotatable=0;perimeter=centerPerimeter;snapToPoint=1;strokeColor=none;strokeWidth=2;" vertex="1" parent="70D8c2b-a05xof2kmsQH-1">
          <mxGeometry x="445" y="555" width="20" height="20" as="geometry" />
        </mxCell>
        <mxCell id="70D8c2b-a05xof2kmsQH-16" style="edgeStyle=orthogonalEdgeStyle;rounded=0;orthogonalLoop=1;jettySize=auto;html=1;entryX=0.687;entryY=1.003;entryDx=0;entryDy=0;entryPerimeter=0;exitX=0.99;exitY=0.69;exitDx=0;exitDy=0;exitPerimeter=0;strokeWidth=2;" edge="1" parent="70D8c2b-a05xof2kmsQH-1">
          <mxGeometry relative="1" as="geometry">
            <mxPoint x="330" y="725" as="sourcePoint" />
            <mxPoint x="269" y="725" as="targetPoint" />
          </mxGeometry>
        </mxCell>
        <mxCell id="70D8c2b-a05xof2kmsQH-17" value="Feed: T&lt;sub&gt;in&lt;/sub&gt;, F&lt;sub&gt;in&lt;/sub&gt;" style="text;strokeColor=none;align=center;fillColor=none;html=1;verticalAlign=middle;whiteSpace=wrap;rounded=0;strokeWidth=2;" vertex="1" parent="70D8c2b-a05xof2kmsQH-1">
          <mxGeometry x="330" y="725" width="80" height="30" as="geometry" />
        </mxCell>
        <mxCell id="70D8c2b-a05xof2kmsQH-18" value="Distillate : F&lt;sub&gt;d&lt;/sub&gt;" style="text;strokeColor=none;align=center;fillColor=none;html=1;verticalAlign=middle;whiteSpace=wrap;rounded=0;strokeWidth=2;" vertex="1" parent="70D8c2b-a05xof2kmsQH-1">
          <mxGeometry x="630" y="525" width="80" height="30" as="geometry" />
        </mxCell>
        <mxCell id="70D8c2b-a05xof2kmsQH-19" value="Control Problems:&lt;p&gt;&lt;/p&gt;&lt;span class=&quot;fontstyle2&quot;&gt;a) Feed and composition temperature constantly change&lt;p&gt;&lt;/p&gt;b) Reflux drum level constantly changes&lt;p&gt;&lt;/p&gt;c) Vapor flow in the column constantly changes&lt;p&gt;&lt;/p&gt;d) Distillate downstream pressure constantly changes&lt;p&gt;&lt;/p&gt;&lt;b&gt;e) Column pressure frequently fluctuates&lt;/b&gt;&lt;p&gt;&lt;/p&gt;Suggest a suitable cascade control configuration to address the above mentioned issues.&lt;/span&gt; " style="text;strokeColor=none;align=left;fillColor=none;html=1;verticalAlign=middle;whiteSpace=wrap;rounded=0;fontSize=12;fontFamily=IBM Plex sans;fontColor=default;" vertex="1" parent="70D8c2b-a05xof2kmsQH-1">
          <mxGeometry x="29" y="10" width="770" height="210" as="geometry" />
        </mxCell>
        <mxCell id="WrXqTtLQJ7Z0WIHHtSlm-0" value="9" style="text;strokeColor=none;align=center;fillColor=none;html=1;verticalAlign=middle;whiteSpace=wrap;rounded=0;fontSize=12;fontFamily=IBM Plex sans;fontColor=default;" vertex="1" parent="70D8c2b-a05xof2kmsQH-1">
          <mxGeometry x="739" y="1110" width="60" height="30" as="geometry" />
        </mxCell>
      </root>
    </mxGraphModel>
  </diagram>
</mxfile>
